<svg width="1349" height="1348" viewBox="0 0 1349 1348" fill="none" xmlns="http://www.w3.org/2000/svg">
<g clip-path="url(#clip0)">
<path d="M56.5762 57.7314H1292.25V1290.27H56.5762V57.7314Z" fill="url(#paint0_radial)"/>
<path d="M56.5762 57.7314H1292.25V1290.27H56.5762V57.7314ZM0.410156 1347.87H1348.41V0.137085H0.410156V1347.87ZM954.121 649.811C982.764 649.811 992.875 649.811 995.683 648.659C995.683 644.628 996.806 641.746 996.806 638.867C996.806 607.765 982.202 550.171 923.79 550.171C869.868 550.171 846.843 598.549 841.225 649.811H954.121V649.811ZM840.104 728.715C841.227 806.47 877.173 858.881 962.547 858.881C995.685 858.881 1024.33 854.276 1054.1 841.029C1058.03 839.301 1060.84 839.877 1060.84 845.06V917.054C1060.84 922.812 1059.16 925.694 1055.23 928.573C1025.46 943.546 988.384 950.459 942.329 950.459C794.051 950.459 738.444 838.15 738.444 713.169C738.444 577.244 806.97 466.086 927.728 466.086C1050.17 466.086 1092.86 571.485 1092.86 657.302C1092.86 684.949 1091.17 707.41 1088.37 718.354C1087.24 722.961 1085.56 724.691 1081.06 725.843C1069.83 727.57 1036.69 729.871 987.263 729.871H840.104V728.715ZM539.052 669.969C523.325 606.038 485.13 466.658 471.088 399.271H469.965C458.171 466.658 427.277 580.695 404.249 669.969H539.052V669.969ZM381.219 763.274L336.849 935.484C335.726 940.088 334.041 941.818 328.423 941.818H245.858C240.242 941.818 239.116 940.091 240.242 933.18L399.754 361.259C402.562 350.893 404.247 342.828 405.37 314.032C405.37 310.001 407.055 308.274 409.863 308.274H527.813C531.744 308.274 533.429 309.425 534.555 314.032L713.163 934.332C714.287 938.937 713.164 941.818 708.671 941.818H615.997C611.504 941.818 608.694 940.091 607.571 936.062L561.513 763.277H381.219V763.274Z" fill="#D8A1FF"/>
</g>
<defs>
<radialGradient id="paint0_radial" cx="0" cy="0" r="1" gradientUnits="userSpaceOnUse" gradientTransform="translate(463.546 333.944) scale(939.109 932.35)">
<stop stop-color="#442F55" stop-opacity="0.98"/>
<stop offset="1" stop-color="#12002C"/>
</radialGradient>
<clipPath id="clip0">
<rect width="1348" height="1348" fill="white" transform="translate(0.410156)"/>
</clipPath>
</defs>
</svg>
