<svg width="1349" height="1348" viewBox="0 0 1349 1348" fill="none" xmlns="http://www.w3.org/2000/svg">
<g clip-path="url(#clip0)">
<path d="M56.5767 57.6068H1292.24V1290.39H56.5767V57.6068Z" fill="#261300"/>
<path d="M0.410156 0V1348H1348.41V0H0.410156ZM56.5768 57.6068H1292.24V1290.39H56.5768V57.6068Z" fill="#FF7C00"/>
<path d="M468.279 763.291L423.907 936.111C422.784 940.72 421.099 941.872 415.482 941.872H332.917C327.301 941.872 326.177 940.144 327.301 933.231L486.814 360.619C489.622 350.25 491.307 341.032 492.431 312.805C492.431 308.773 494.116 307.044 496.924 307.044H614.874C618.806 307.044 620.491 308.197 621.614 312.805L800.224 934.383C801.347 938.991 800.224 941.872 795.731 941.872H702.494C698.001 941.872 695.192 940.72 694.069 936.687L647.451 763.291H468.279ZM624.422 669.968C608.696 606.024 571.626 466.615 557.584 399.215H556.461C544.666 466.615 514.897 580.677 491.307 669.968H624.422V669.968ZM877.172 349.674C877.172 312.805 902.447 290.915 934.462 290.915C968.724 290.915 991.752 314.533 991.752 349.674C991.752 387.694 967.601 408.433 933.339 408.433C900.762 408.433 877.172 387.694 877.172 349.674V349.674ZM883.912 480.441C883.912 475.833 885.597 473.528 890.652 473.528H978.834C983.327 473.528 985.574 475.256 985.574 480.441V934.959C985.574 939.568 984.451 941.872 978.834 941.872H891.776C886.159 941.872 884.474 938.991 884.474 934.383V480.441H883.912Z" fill="#FF7C00"/>
</g>
<defs>
<clipPath id="clip0">
<rect width="1348" height="1348" fill="white" transform="translate(0.410156)"/>
</clipPath>
</defs>
</svg>
