<svg width="1685" height="1348" viewBox="0 0 1685 1348" fill="none" xmlns="http://www.w3.org/2000/svg">
  <g clip-path="url(#clip0_202_554)">
    <path fill-rule="evenodd" clip-rule="evenodd"
      d="M349.98 2.85596C253.835 2.85596 182.694 87.006 185.878 178.267C188.934 265.944 184.964 379.496 156.377 472.1C127.703 564.975 79.2093 623.807 0 631.361V716.639C79.2093 724.193 127.703 783.025 156.377 875.9C184.964 968.504 188.934 1082.06 185.878 1169.73C182.694 1260.98 253.835 1345.14 349.995 1345.14H1335.15C1431.29 1345.14 1502.42 1260.99 1499.24 1169.73C1496.18 1082.06 1500.15 968.504 1528.74 875.9C1557.43 783.025 1605.79 724.193 1685 716.639V631.361C1605.79 623.807 1557.43 564.975 1528.74 472.1C1500.15 379.511 1496.18 265.944 1499.24 178.267C1502.42 87.0203 1431.29 2.85596 1335.15 2.85596H349.966H349.98ZM1142.37 829.12C1142.37 954.781 1048.64 1030.99 893.093 1030.99H628.305C620.731 1030.99 613.466 1027.98 608.111 1022.63C602.755 1017.27 599.746 1010.01 599.746 1002.43V345.568C599.746 337.993 602.755 330.729 608.111 325.373C613.466 320.017 620.731 317.008 628.305 317.008H891.579C1021.28 317.008 1106.4 387.264 1106.4 495.133C1106.4 570.844 1049.14 638.629 976.186 650.496V654.451C1075.5 665.346 1142.37 734.117 1142.37 829.12ZM864.219 407.542H713.241V620.794H840.401C938.702 620.794 992.908 581.211 992.908 510.455C992.908 444.155 946.299 407.542 864.219 407.542ZM713.241 705.415V940.43H869.774C972.117 940.43 1026.34 899.362 1026.34 822.18C1026.34 744.984 970.603 705.401 863.191 705.401H713.241V705.415Z"
      fill="#7952B3" />
  </g>
  <defs>
    <clipPath id="clip0_202_554">
      <rect width="1685" height="1348" fill="white" />
    </clipPath>
  </defs>
</svg>