<svg width="1315" height="1348" viewBox="0 0 1315 1348" fill="none" xmlns="http://www.w3.org/2000/svg">
<g clip-path="url(#clip0)">
<path d="M0.298828 1174.19C0.298828 1270.19 76.177 1348 169.773 1348H1145.17C1238.78 1348 1314.65 1270.18 1314.65 1174.19V173.818C1314.65 77.8101 1238.77 0 1145.18 0H169.778C76.1667 0 0.298828 77.8207 0.298828 173.813V1174.18V1174.19Z" fill="#563D7C"/>
<path d="M545.334 596.269V405.374H709.172C724.779 405.374 739.823 406.706 754.311 409.376C768.8 412.04 781.62 416.801 792.766 423.662C803.908 430.523 812.826 440.048 819.516 452.238C826.2 464.433 829.548 480.057 829.548 499.102C829.548 533.397 819.516 558.167 799.451 573.406C779.392 588.65 753.757 596.269 722.546 596.269H545.334V596.269ZM370.346 265.914V1082.09H755.985C791.652 1082.09 826.39 1077.52 860.199 1068.37C894.008 1059.22 924.099 1045.13 950.479 1026.08C976.853 1007.02 997.847 982.444 1013.45 952.346C1029.06 922.243 1036.86 886.615 1036.86 845.465C1036.86 794.404 1024.78 750.778 1000.63 714.582C976.483 678.381 939.887 653.043 890.845 638.562C926.512 621.038 953.451 598.554 971.657 571.12C989.858 543.686 998.961 509.397 998.961 468.24C998.961 430.138 992.83 398.134 980.57 372.222C968.31 346.315 951.033 325.547 928.74 309.924C906.453 294.301 879.704 283.059 848.493 276.203C817.287 269.342 782.734 265.914 744.839 265.914H370.346V265.914ZM545.334 942.626V718.579H735.921C773.816 718.579 804.282 727.53 827.319 745.444C850.351 763.352 861.873 793.261 861.873 835.175C861.873 856.517 858.34 874.041 851.281 887.758C844.221 901.475 834.749 912.338 822.858 920.336C810.972 928.34 797.223 934.053 781.62 937.487C766.012 940.909 749.67 942.626 732.578 942.626H545.334V942.626Z" fill="white"/>
</g>
<defs>
<clipPath id="clip0">
<rect width="1314.35" height="1348" fill="white" transform="translate(0.298828)"/>
</clipPath>
</defs>
</svg>
