<svg width="1317" height="1348" viewBox="0 0 1317 1348" fill="none" xmlns="http://www.w3.org/2000/svg">
<g clip-path="url(#clip0)">
<path d="M653.973 0C783.271 0 909.666 39.5294 1017.17 113.589C1124.68 187.65 1208.47 292.914 1257.95 416.071C1307.43 539.229 1320.38 674.748 1295.16 805.491C1269.93 936.234 1207.67 1056.33 1116.24 1150.59C1024.81 1244.85 908.326 1309.04 781.512 1335.05C654.698 1361.06 523.252 1347.71 403.796 1296.69C284.339 1245.68 182.239 1159.29 110.404 1048.45C38.5699 937.616 0.228516 807.304 0.228516 674C0.228516 495.244 69.1049 323.81 191.706 197.41C314.306 71.0105 480.589 0 653.973 0V0Z" fill="#22A900"/>
<path d="M1006.6 623.509L1009.76 632.63L1011.97 636.539H1035.04L1037.88 630.35C1058.67 569.55 1076.38 507.681 1090.96 444.992C1112.32 359.967 1121.16 272.116 1117.19 184.383C1114.94 149.468 1106.92 115.206 1093.49 83.0709C1088.92 69.2247 1081.7 56.4663 1072.26 45.5538C1062.81 34.6413 1051.34 25.7974 1038.51 19.5475C1006.91 7.8201 978.477 35.8356 965.206 58.6389C895.06 178.519 939.928 384.4 972.473 508.515L983.532 550.538C990.799 574.97 999.331 596.796 1006.6 623.509ZM957.622 675.956L975.949 759.351H1062.84L1079.59 674.653L957.622 675.956ZM1194.6 44.9569C1224.35 56.5554 1250.86 75.5651 1271.75 100.291C1292.65 125.016 1307.28 154.689 1314.35 186.663L1316.88 212.072V232.595L1313.41 255.399V266.149C1289.08 385.377 1177.54 541.743 1079.27 624.486C1215.14 463.886 1419.57 209.466 1196.5 44.9569H1194.6ZM853.352 44.9569C823.599 56.5554 797.094 75.5651 776.199 100.291C755.303 125.016 740.668 154.689 733.599 186.663L731.071 212.072V232.595L734.231 255.399L736.127 266.149C760.457 385.377 871.994 541.743 969.945 624.486C835.026 463.886 632.172 209.466 853.352 44.9569V44.9569ZM1050.2 631.327L1062.21 622.206C1207.87 500.697 1407.57 92.518 1093.81 17.2672C1086.45 14.9115 1078.76 13.8112 1071.06 14.0096C1318.46 108.806 1151.63 477.894 1051.15 632.956L1050.2 631.327ZM997.435 631.327L985.112 622.206C839.765 500.697 640.072 92.518 953.515 17.2672C960.776 14.952 968.35 13.8521 975.949 14.0096C728.859 108.806 895.692 477.894 996.171 632.956L997.435 631.327Z" fill="#A5A5A5"/>
<path d="M653.973 0C783.271 0 909.666 39.5294 1017.17 113.589C1124.68 187.65 1208.47 292.914 1257.95 416.071C1307.43 539.229 1320.38 674.748 1295.16 805.491C1269.93 936.234 1207.67 1056.33 1116.24 1150.59C1024.81 1244.85 908.326 1309.04 781.512 1335.05C654.698 1361.06 523.252 1347.71 403.796 1296.69C284.339 1245.68 182.239 1159.29 110.404 1048.45C38.5699 937.616 0.228516 807.304 0.228516 674L485.56 1183.16L901.062 1266.23L814.802 842.744L194.551 195.457L200.238 189.919L207.505 182.752L211.613 178.843L218.88 172.002L223.304 168.093L230.571 161.578L235.311 157.668L241.314 152.456L247.318 147.244L253.005 140.729L258.377 136.494L266.276 130.304L272.28 125.744L278.599 121.509L284.602 117.6L290.606 113.365L297.873 108.478L303.561 104.895L311.144 99.6829L316.2 97.7284L324.415 92.8419L329.786 89.9101L338.317 84.6979L343.373 81.7661L352.536 76.8796L357.276 74.5993L366.755 69.3871L372.442 65.1522L382.237 60.2658L386.661 58.3113L396.772 53.4248H401.196L410.991 47.8869L415.098 46.2581L426.473 41.6974H429.949L442.588 36.1595H445.748L457.754 32.5761H460.598L474.185 26.0609H476.713L489.984 22.4775H492.195L505.782 17.9169H507.994L521.897 14.6593H523.792L537.379 10.7501L552.23 8.46979L568.976 5.53794H650.181L653.973 0ZM57.7352 397.103C59.6311 392.542 61.8429 387.982 63.7387 383.747V382.118L69.4262 369.413V366.807L75.1136 355.731L77.0095 351.822L82.381 342.049L85.2247 336.837L89.9643 329.019C91.2155 326.56 92.5865 324.168 94.0719 321.852L97.5476 315.988L103.235 306.867C103.865 305.708 104.606 304.616 105.447 303.609L115.558 293.185V291.556L652.709 843.07L650.813 926.139L570.24 927.768L57.7352 397.103Z" fill="url(#paint0_radial)"/>
<path d="M1006.6 623.509L1009.76 632.63L1011.97 636.539H1035.04L1037.88 630.35C1058.67 569.55 1076.38 507.681 1090.96 444.992C1112.32 359.967 1121.16 272.116 1117.19 184.383C1114.94 149.468 1106.92 115.206 1093.49 83.0709C1088.92 69.2247 1081.7 56.4663 1072.26 45.5538C1062.81 34.6413 1051.34 25.7974 1038.51 19.5475C1006.91 7.8201 978.477 35.8356 965.206 58.6389C895.06 178.519 939.928 384.4 972.473 508.515L983.532 550.538C990.799 574.97 999.331 596.796 1006.6 623.509ZM957.622 675.956L975.949 759.351H1062.84L1079.59 674.653L957.622 675.956ZM1194.6 44.9569C1224.35 56.5554 1250.86 75.5651 1271.75 100.291C1292.65 125.016 1307.28 154.689 1314.35 186.663L1316.88 212.072V232.595L1313.41 255.399V266.149C1289.08 385.377 1177.54 541.743 1079.27 624.486C1215.14 463.886 1419.57 209.466 1196.5 44.9569H1194.6ZM853.352 44.9569C823.599 56.5554 797.094 75.5651 776.199 100.291C755.303 125.016 740.668 154.689 733.599 186.663L731.071 212.072V232.595L734.231 255.399L736.127 266.149C760.457 385.377 871.994 541.743 969.945 624.486C835.026 463.886 632.172 209.466 853.352 44.9569V44.9569ZM1050.2 631.327L1062.21 622.206C1207.87 500.697 1407.57 92.518 1093.81 17.2672C1086.45 14.9115 1078.76 13.8112 1071.06 14.0096C1318.46 108.806 1151.63 477.894 1051.15 632.956L1050.2 631.327ZM997.435 631.327L985.112 622.206C839.765 500.697 640.072 92.518 953.515 17.2672C960.776 14.952 968.35 13.8521 975.949 14.0096C728.859 108.806 895.692 477.894 996.171 632.956L997.435 631.327Z" fill="#A5A5A5"/>
</g>
<defs>
<radialGradient id="paint0_radial" cx="0" cy="0" r="1" gradientUnits="userSpaceOnUse" gradientTransform="translate(639.261 654.493) scale(653.744 674)">
<stop stop-color="white"/>
<stop offset="1" stop-color="#D8D8D8"/>
</radialGradient>
<clipPath id="clip0">
<rect width="1316.65" height="1348" fill="white" transform="translate(0.228516)"/>
</clipPath>
</defs>
</svg>
