<svg width="877" height="1348" viewBox="0 0 877 1348" fill="none" xmlns="http://www.w3.org/2000/svg">
<path d="M292.224 1123.42C372.854 1123.42 438.293 1056.31 438.293 973.617V823.806H292.224C211.595 823.806 146.156 890.92 146.156 973.617C146.156 1056.31 211.595 1123.42 292.224 1123.42Z" fill="#0ACF83"/>
<path d="M146.156 674C146.156 591.308 211.595 524.192 292.224 524.192H438.293V823.806H292.224C211.595 823.806 146.156 756.692 146.156 674Z" fill="#A259FF"/>
<path d="M146.156 374.384C146.156 291.69 211.595 224.577 292.224 224.577H438.293V524.192H292.224C211.595 524.192 146.156 457.078 146.156 374.384Z" fill="#F24E1E"/>
<path d="M438.293 224.577H584.361C664.989 224.577 730.428 291.69 730.428 374.384C730.428 457.078 664.989 524.192 584.361 524.192H438.293V224.577Z" fill="#FF7262"/>
<path d="M730.428 674C730.428 756.692 664.989 823.806 584.361 823.806C503.731 823.806 438.293 756.692 438.293 674C438.293 591.308 503.731 524.192 584.361 524.192C664.989 524.192 730.428 591.308 730.428 674Z" fill="#1ABCFE"/>
</svg>
