<svg width="877" height="1348" viewBox="0 0 877 1348" fill="none" xmlns="http://www.w3.org/2000/svg">
<path d="M257 1229C356.36 1229 437 1146.34 437 1044.5V860H257C157.64 860 77 942.656 77 1044.5C77 1146.34 157.64 1229 257 1229Z" fill="#0ACF83"/>
<path d="M77 674.501C77 572.107 157.64 489 257 489H437V860H257C157.64 860 77 776.895 77 674.501Z" fill="#A259FF"/>
<path d="M77 304C77 201.88 157.64 119 257 119H437V489H257C157.64 489 77 406.12 77 304Z" fill="#F24E1E"/>
<path d="M437 119H618.001C717.911 119 799 201.88 799 304C799 406.12 717.911 489 618.001 489H437V119Z" fill="#FF7262"/>
<path d="M799 674.501C799 776.895 717.911 860 618.001 860C518.088 860 437 776.895 437 674.501C437 572.107 518.088 489 618.001 489C717.911 489 799 572.107 799 674.501Z" fill="#1ABCFE"/>
</svg>
