<svg width="1309" height="1348" viewBox="0 0 1309 1348" fill="none" xmlns="http://www.w3.org/2000/svg">
<path d="M1076.52 226.233C1071.33 184.045 1067.23 150.724 1041.63 147.628C1018.41 144.911 1004.01 171.407 985.693 221.452C946.335 329.123 832.96 415.795 695.628 444.251C668.718 427.964 637.824 420.028 606.651 421.395C575.477 422.763 545.348 433.375 519.877 451.96C395.534 440.733 304.647 305.533 303.727 304.122L266.392 247.485V510.324C257.222 525.447 250.992 542.265 248.051 559.842C195.765 523.572 134.758 515.421 91.2745 544.635C66.4386 561.337 50.1605 587.56 44.1762 620.502C35.4755 668.419 49.6499 723.413 83.0844 771.394C122.707 828.283 181.162 861.478 233.795 862.973L232.917 864.069C268.148 894.272 328.073 936.123 382.524 961.483C484.727 1009.13 579.904 1032.78 665.482 1032.76C789.702 1032.76 893.641 982.924 969.353 884.31C1102.72 710.586 1087.45 314.864 1076.52 226.233V226.233ZM736.149 589.751C736.149 659.446 681.188 716.126 613.604 716.126C546.02 716.126 491.059 659.446 491.059 589.751C491.059 520.055 546.02 463.376 613.604 463.376C681.188 463.376 736.149 520.055 736.149 589.751ZM306.73 618.733C300.766 610.16 294.271 602.262 287.531 594.763C287.069 590.92 286.83 587.052 286.816 583.179C286.816 528.732 331.361 484.438 386.119 484.438C416.837 484.438 445.349 498.634 464.017 522.182C454.914 543.472 450.212 566.483 450.21 589.751C450.21 609.613 453.723 628.59 459.871 646.303C439.957 677.328 413.365 695.063 385.629 695.063C368.37 695.063 351.357 687.923 336.018 674.906C328.73 654.918 318.88 636.025 306.73 618.733V618.733ZM382.994 442.482C356.008 443.005 329.728 451.459 307.24 466.851V374.934C326.215 395.976 351.908 420.829 382.994 442.482V442.482ZM116.253 746.814C89.7018 708.691 77.7741 664.375 84.3302 628.253C87.0262 613.362 94.2973 592.889 113.578 579.935C124.832 572.374 138.189 568.814 152.547 568.814C192.844 568.814 241.148 596.806 273.561 643.312C300.092 681.415 312.04 725.709 305.484 761.831C302.788 776.743 295.517 797.216 276.236 810.191C233.468 838.962 160.206 809.917 116.253 746.814V746.814ZM937.308 858.192C822.238 1008.11 631.169 1031.14 399.333 923.128C360.16 904.867 317.963 877.464 285.448 852.842C289.941 850.715 294.332 848.314 298.54 845.491C323.376 828.789 339.674 802.524 345.638 769.582C347.92 756.48 348.593 743.134 347.64 729.858C359.789 734.574 372.647 737.055 385.629 737.188C421.208 737.188 454.581 719.327 480.806 687.544C495.876 709.389 515.791 727.204 538.891 739.503C561.991 751.802 587.607 758.23 613.604 758.251C703.695 758.251 776.998 682.657 776.998 589.751C776.998 546.783 761.19 507.649 735.435 477.867C871.909 440.291 982.833 348.669 1023.91 236.301C1027.54 226.38 1030.71 218.419 1033.4 212.037C1034.49 219.493 1035.38 226.759 1035.96 231.541C1044.68 302.142 1062.55 695.063 937.308 858.192V858.192Z" fill="url(#paint0_linear)"/>
<path d="M143.85 568.688C127.599 568.688 112.014 576.454 100.523 590.279C89.0324 604.104 82.5769 622.855 82.5769 642.406C82.5769 661.958 89.0324 680.708 100.523 694.533C112.014 708.358 127.599 716.125 143.85 716.125C160.1 716.125 175.685 708.358 187.176 694.533C198.667 680.708 205.122 661.958 205.122 642.406C205.122 622.855 198.667 604.104 187.176 590.279C175.685 576.454 160.1 568.688 143.85 568.688V568.688Z" fill="url(#paint1_linear)"/>
<path d="M654.456 547.625C652.107 547.625 649.942 548.131 647.654 548.32C657.763 550.052 666.869 555.644 673.162 563.984C679.455 572.324 682.473 582.801 681.615 593.332C680.758 603.862 676.089 613.674 668.536 620.816C660.983 627.957 651.1 631.906 640.853 631.875C630.019 631.875 619.63 627.437 611.969 619.537C604.308 611.637 600.005 600.922 600.005 589.75C600.005 578.355 604.437 568.035 611.585 560.452C599.738 567.948 589.95 578.447 583.154 590.95C576.357 603.452 572.778 617.542 572.759 631.875C572.759 648.538 577.55 664.827 586.527 678.682C595.504 692.537 608.264 703.335 623.192 709.712C638.12 716.088 654.546 717.757 670.394 714.506C686.242 711.255 700.799 703.231 712.224 691.449C723.65 679.666 731.431 664.654 734.583 648.311C737.735 631.968 736.117 615.029 729.934 599.634C723.75 584.239 713.279 571.081 699.844 561.824C686.409 552.566 670.614 547.625 654.456 547.625Z" fill="url(#paint2_linear)"/>
<path d="M419.577 547.625C417.555 547.625 415.635 548.067 413.633 548.236C422.445 549.789 430.372 554.696 435.845 561.985C441.319 569.274 443.941 578.416 443.194 587.602C442.447 596.789 438.385 605.353 431.811 611.601C425.237 617.848 416.63 621.325 407.69 621.344C402.996 621.344 398.348 620.39 394.012 618.538C389.675 616.686 385.735 613.971 382.416 610.548C379.097 607.125 376.465 603.062 374.668 598.59C372.872 594.118 371.948 589.325 371.948 584.484C371.948 574.522 375.828 565.486 382.078 558.851C371.709 565.407 363.141 574.593 357.192 585.532C351.242 596.472 348.109 608.801 348.092 621.344C348.092 635.924 352.285 650.177 360.139 662.3C367.994 674.423 379.159 683.871 392.221 689.451C405.283 695.031 419.656 696.49 433.523 693.646C447.39 690.802 460.127 683.781 470.124 673.471C480.122 663.161 486.93 650.026 489.688 635.726C492.446 621.426 491.031 606.603 485.62 593.133C480.21 579.662 471.047 568.149 459.292 560.049C447.536 551.949 433.715 547.625 419.577 547.625V547.625Z" fill="url(#paint3_linear)"/>
<path d="M1233.65 977.721C1202.24 945.58 1158.21 938.714 1124.04 960.619C1123.69 960.829 1123.42 961.145 1123.08 961.356C1085.35 932.711 1027.45 899.643 959.418 869.797C911.4 848.735 865.323 832.306 825.761 821.438L716.247 849.619C716.247 849.619 820.002 929.214 912.115 969.633C976.758 997.983 1037.66 1017.74 1084.11 1027.05C1082.21 1043.63 1084.05 1061.61 1090.01 1079.9C1110.52 1142.87 1228.38 1175.35 1241.76 1178.85L1267.15 1185.48L1267.19 1158.48C1267.25 1124.21 1265.03 1009.86 1233.65 977.721V977.721Z" fill="url(#paint4_linear)"/>
<path d="M491.062 842.563C491.062 842.563 802.634 863.268 802.634 790.118C802.634 753.764 779.901 716.125 779.901 716.125C779.901 716.125 871.116 766.001 857.289 832.411C854.774 843.767 850.185 854.524 843.768 864.11C775.551 968.896 491.062 842.563 491.062 842.563Z" fill="url(#paint5_linear)"/>
<defs>
<linearGradient id="paint0_linear" x1="562.543" y1="154.452" x2="562.543" y2="1026.84" gradientUnits="userSpaceOnUse">
<stop stop-color="#1A6DFF"/>
<stop offset="1" stop-color="#C822FF"/>
</linearGradient>
<linearGradient id="paint1_linear" x1="143.85" y1="154.451" x2="143.85" y2="1026.84" gradientUnits="userSpaceOnUse">
<stop stop-color="#1A6DFF"/>
<stop offset="1" stop-color="#C822FF"/>
</linearGradient>
<linearGradient id="paint2_linear" x1="654.456" y1="154.451" x2="654.456" y2="1026.84" gradientUnits="userSpaceOnUse">
<stop stop-color="#1A6DFF"/>
<stop offset="1" stop-color="#C822FF"/>
</linearGradient>
<linearGradient id="paint3_linear" x1="419.577" y1="154.451" x2="419.577" y2="1026.84" gradientUnits="userSpaceOnUse">
<stop stop-color="#1A6DFF"/>
<stop offset="1" stop-color="#C822FF"/>
</linearGradient>
<linearGradient id="paint4_linear" x1="991.708" y1="821.438" x2="991.708" y2="1185.5" gradientUnits="userSpaceOnUse">
<stop stop-color="#6DC7FF"/>
<stop offset="1" stop-color="#E6ABFF"/>
</linearGradient>
<linearGradient id="paint5_linear" x1="674.88" y1="154.451" x2="674.88" y2="1026.84" gradientUnits="userSpaceOnUse">
<stop stop-color="#1A6DFF"/>
<stop offset="1" stop-color="#C822FF"/>
</linearGradient>
</defs>
</svg>
