<svg width="1297" height="1348" viewBox="0 0 1297 1348" fill="none" xmlns="http://www.w3.org/2000/svg">
<g clip-path="url(#clip0)">
<path d="M1269.12 606.6L713.203 28.379C696.151 10.6421 672.277 0 648.403 0C624.53 0 600.656 10.6421 583.603 28.379L464.235 152.537L604.066 297.979C617.709 290.884 631.351 287.337 648.403 287.337C706.382 287.337 750.719 333.453 750.719 393.758C750.719 411.495 747.309 425.684 740.488 439.874L876.909 581.768C890.551 574.674 904.193 571.126 921.245 571.126C979.224 571.126 1023.56 617.242 1023.56 677.547C1023.56 737.853 979.224 783.968 921.245 783.968C863.266 783.968 818.93 737.853 818.93 677.547C818.93 659.811 822.34 645.621 829.161 631.432L692.74 489.537C689.33 489.537 685.919 493.084 682.509 493.084V862.01C723.435 876.2 750.719 915.221 750.719 961.337C750.719 1021.64 706.382 1067.76 648.403 1067.76C590.424 1067.76 546.088 1021.64 546.088 961.337C546.088 915.221 573.372 876.2 614.298 862.01V489.537C573.372 475.347 546.088 436.326 546.088 390.211C546.088 372.474 549.498 358.284 556.319 344.095L416.488 198.653L27.6875 606.6C10.6349 624.337 0.40332 649.168 0.40332 674C0.40332 698.832 10.6349 723.663 27.6875 741.4L583.603 1319.62C600.656 1337.36 624.53 1348 648.403 1348C672.277 1348 696.151 1337.36 713.203 1319.62L1269.12 741.4C1286.17 723.663 1296.4 698.832 1296.4 674C1296.4 649.168 1286.17 624.337 1269.12 606.6V606.6Z" fill="#F4511E"/>
</g>
<defs>
<clipPath id="clip0">
<rect width="1296" height="1348" fill="white" transform="translate(0.40332)"/>
</clipPath>
</defs>
</svg>
