<svg width="1348" height="1348" viewBox="0 0 1348 1348" fill="none" xmlns="http://www.w3.org/2000/svg">
  <path
    d="M854.786 1215.03L865.562 1031L895.318 978.938C895.318 978.938 827.594 1007.33 714.213 1007.33C600.831 1007.33 534.134 979.463 534.134 979.463L567.481 1036.25L579.278 1215.03C579.278 1234.2 640.951 1249.73 717.033 1249.73C793.11 1249.73 854.786 1234.2 854.786 1215.03V1215.03ZM820.793 355.614L843.412 263.984L968.671 128.901L935.657 100.082L803.045 243.978L776.782 353.453C757.016 352.774 737.241 352.437 717.464 352.442C577.799 352.442 464.577 368.755 464.577 388.874C464.577 408.995 577.799 425.307 717.464 425.307C857.127 425.307 970.347 408.995 970.347 388.874C970.347 374.059 908.941 361.307 820.793 355.614"
    fill="#D34A47" />
  <path
    d="M807.636 406.93C807.636 406.93 802.738 408.055 788.328 408.118C773.914 408.179 763.679 408.023 759.603 404.217C758.507 403.195 757.907 401.166 757.913 399.793C757.925 397.177 759.736 395.637 762.043 394.672L764.225 398.181C763.276 398.517 762.734 398.913 762.732 399.337C762.724 401.323 777.47 402.682 788.749 402.536C800.029 402.393 813.659 401.441 813.671 399.483C813.671 398.891 812.64 398.333 810.847 397.894L813.02 394.41C815.943 395.34 818.494 397.137 818.488 400.246C818.46 405.534 811.896 406.337 807.636 406.93"
    fill="white" />
  <path
    d="M968.018 128.847C971.167 125.119 966.387 115.582 957.342 107.549C948.294 99.5209 938.405 96.0327 935.25 99.761C932.098 103.489 936.88 113.026 945.929 121.054C954.974 129.085 964.866 132.577 968.018 128.847ZM848.354 765.187C845.386 735.914 910.828 693.518 894.033 692.161C857.878 694.279 839.883 735.586 821.692 778.848C815.026 794.704 792.217 862.314 777.257 853.991C762.301 845.671 796.647 790.074 806.274 757.056C795.166 765.404 754.429 797.842 743.931 767.464C727.053 782.155 690.987 790.115 695.055 751.523C686.076 767.824 665.923 790.583 641.734 781.126C609.967 768.709 660.141 664.998 672.617 670.231C685.095 675.461 670.099 699.086 666.172 708.261C657.534 728.451 647.556 753.833 654.222 759.028C665.641 767.93 696.717 725.354 697.408 724.417C703.221 716.548 719.779 665.061 733.125 670.973C746.471 676.885 699.837 744.864 717.273 758.355C720.79 761.078 735.178 756.676 743.931 746.97C749.594 740.692 747.646 726.786 766.524 680.646C785.402 634.508 802.227 577.049 815.173 581.427C828.12 585.802 817.449 615.293 812.805 626.286C791.01 677.885 753.321 763.129 771.095 756.676C788.869 750.225 798.124 749.846 815.529 728.972C832.933 708.098 832.131 673.715 843.732 674.445C855.336 675.178 853.388 686.202 850.574 694.597C861.992 681.206 904.696 653.003 915.006 680.935C927.218 714.004 853.908 761.77 872.186 759.334C890.008 756.959 918.88 738.217 931.207 721.177L965.138 408.532C965.138 408.532 930.994 437.491 713.772 437.491C496.548 437.491 465.937 409.134 465.937 409.134L494.825 694.505C510.158 649.841 546.57 559.498 603.964 562.531C630.072 563.91 664.925 615.433 635.07 617.179C622.433 617.916 621.15 591.462 606.186 587.577C595.388 584.772 580.354 593.769 570.638 603.518C551.262 622.953 509.588 699.634 515.095 737.863C522.11 786.602 580.718 720.927 590.634 701.429C597.618 687.694 602.336 647 617.61 651.269C632.886 655.539 616.277 697.536 605.205 734.666C592.767 776.359 586.228 820.34 570.638 815.281C555.047 810.226 580.444 756.401 579.524 746.97C564.87 760.828 537.873 795.909 503.334 778.545L521.274 955.758C521.274 955.758 568.956 994.371 712.595 994.371C856.233 994.371 905.681 956.361 905.681 956.361L927.958 751.106C909.732 769.296 852.048 801.597 848.354 765.187"
    fill="#D34A47" />
</svg>