<svg width="1138" height="1348" viewBox="0 0 1138 1348" fill="none" xmlns="http://www.w3.org/2000/svg">
<g clip-path="url(#clip0)">
<path d="M437.883 608.012H0.892812C0.892812 608.012 -22.1236 901.86 229.126 1145C458.002 1366.33 732.751 1347.5 732.751 1347.5V911.275C588.375 911.275 437.883 788.054 437.883 608.012Z" fill="#F4B500"/>
<path d="M689.776 348.686V0.165193C689.776 0.165193 447.701 -13.3792 260.995 188.631C114.687 344.722 101.65 541.612 101.65 541.612C101.65 541.612 372.697 593.642 437.722 608.012C435.952 461.006 548.137 348.686 689.776 348.686V348.686Z" fill="#4481F6"/>
<path d="M101.811 541.612C101.811 541.612 96.0168 577.455 99.3968 608.012H437.883L101.811 541.612Z" fill="#3566C5"/>
<path d="M689.777 348.686L754.963 107.86C754.963 107.86 712.793 102.244 689.777 104.887V348.686V348.686Z" fill="#AF362B"/>
<path d="M689.777 348.686C689.777 348.686 898.856 344.226 908.513 574.977H1137.07C1137.07 574.977 1157.67 198.211 754.963 107.86C738.868 167.819 689.777 348.686 689.777 348.686V348.686Z" fill="#DB4533"/>
<path d="M732.912 911.275L811.618 731.729C811.618 731.729 904.489 686.471 908.674 574.812C938.772 588.356 1011.2 619.079 1044.36 634.11C1037.11 691.591 962.271 904.668 732.912 911.275V911.275Z" fill="#CCCCCC"/>
<path d="M811.618 731.729C811.618 731.729 778.623 754.854 732.912 750.889V911.275L811.618 731.729ZM908.513 574.812H1052.24C1052.24 574.812 1055.62 596.285 1044.2 634.11C1014.1 620.731 908.513 574.812 908.513 574.812Z" fill="#B7B7B7"/>
</g>
<defs>
<clipPath id="clip0">
<rect width="1136.82" height="1348" fill="white" transform="translate(0.410156)"/>
</clipPath>
</defs>
</svg>
