<svg width="1349" height="1348" viewBox="0 0 1349 1348" fill="none" xmlns="http://www.w3.org/2000/svg">
  <g clip-path="url(#clip0)">
    <path d="M1081.95 319.826L1008.1 1168.46L676.135 1262.86L345.083 1168.59L271.308 319.826H1081.95Z" fill="#E44D26" />
    <path d="M676.631 1190.7L944.877 1114.42L1007.98 389.223H676.631V1190.7Z" fill="#F16529" />
    <path
      d="M533.065 597.422H676.631V493.324H422.157L424.584 521.251L449.529 808.117H676.631V704.019H542.341L533.065 597.422V597.422ZM555.938 860.167H454.063L468.28 1023.62L676.164 1082.81L676.631 1082.68V974.372L676.186 974.493L563.164 943.189L555.938 860.167Z"
      fill="#EBEBEB" />
    <path
      d="M346.729 89.1665H398.302V141.432H445.48V89.1665H497.056V247.44H445.483V194.441H398.305V247.44H346.732V89.1665H346.729ZM564.873 141.654H519.478V89.1665H661.88V141.654H616.456V247.44H564.883V141.654H564.88H564.873ZM684.479 89.1665H738.254L771.333 144.779L804.381 89.1665H858.178V247.44H806.815V168.991L771.333 225.265H770.444L734.94 168.991V247.44H684.479V89.1665ZM883.844 89.1665H935.433V195.125H1007.96V247.44H883.841V89.1665H883.844Z"
      fill="black" />
    <path
      d="M676.281 808.117H801.248L789.465 943.124L676.278 974.46V1082.76L884.327 1023.62L885.852 1006.03L909.704 731.972L912.179 704.019H676.281V808.117ZM676.281 597.167V597.422H921.413L923.447 574.025L928.074 521.251L930.498 493.324H676.281V597.171V597.167Z"
      fill="white" />
  </g>
  <defs>
    <clipPath id="clip0">
      <rect width="1348" height="1348" fill="white" transform="translate(0.963867)" />
    </clipPath>
  </defs>
</svg>