<svg width="1295" height="1348" viewBox="0 0 1295 1348" fill="none" xmlns="http://www.w3.org/2000/svg">
<path d="M0.963867 1348V0H1294.95V1348H0.963867Z" fill="#FFD600"/>
<path d="M847.017 1009.01C871.891 1051.1 898.921 1091.43 956.18 1091.43C1004.27 1091.43 1029.51 1066.53 1029.51 1032.08C1029.51 990.853 1003.41 976.213 950.501 952.211L921.494 939.33C837.78 902.335 782.102 855.978 782.102 758.061C782.102 667.82 848.419 599.147 952.046 599.147C1025.84 599.147 1078.86 625.77 1117.1 695.491L1026.74 755.665C1006.86 718.67 985.366 704.104 952.046 704.104C918.043 704.104 896.512 726.458 896.512 755.665C896.512 791.761 918.079 806.364 967.862 828.719L996.869 841.6C1095.54 885.372 1151.18 930.081 1151.18 1030.58C1151.18 1138.87 1069.08 1198.22 958.876 1198.22C851.079 1198.22 789.866 1141.87 755.791 1072.11L847.017 1009.01V1009.01ZM430.568 1012.08C448.756 1046.01 476.397 1072.11 516.151 1072.11C554.18 1072.11 576.07 1056.46 576.07 995.609V599.109H695.872V1014.78C695.872 1140.86 625.673 1198.22 523.16 1198.22C430.532 1198.22 363.676 1132.84 336.43 1072.11L430.568 1012.08V1012.08Z" fill="#000001"/>
</svg>
