<svg width="5812" height="1348" viewBox="0 0 5812 1348" fill="none" xmlns="http://www.w3.org/2000/svg">
<g clip-path="url(#clip0)">
<path fill-rule="evenodd" clip-rule="evenodd" d="M5556.53 100.472L5799.44 101.843C5799.44 101.843 5347.83 728.942 5310.95 780.05C5298.97 796.598 5280.78 814.447 5271.55 836.573C5248.23 892.19 5224.28 1014.2 5224.28 1014.2L5002.02 1015.33C5002.02 1015.33 5036.61 888.157 5035.18 820.42C5033.93 761.248 5004.45 702.145 4987.91 642.798C4971.2 582.719 4948.51 465.164 4948.51 465.164H5177.01L5208.52 594.351L5556.53 100.472" fill="#1A1918"/>
<path fill-rule="evenodd" clip-rule="evenodd" d="M5096.56 232.727C5141.39 260.42 5168.9 413.185 5168.9 413.185C5168.9 413.185 4934.34 416.729 4806.7 416.729H4696.39L4562.44 1014.2H4357.59C4357.59 1014.2 4485.08 364.901 4515.17 247.184C4524.93 209.068 4581.99 215.61 4678.35 215.61H4832.22C4931.59 215.61 5047.72 202.607 5096.56 232.727V232.727ZM4142.89 523.71C4142.89 523.71 4149.27 485.361 4121.23 440.947C4097.27 403.087 4075.14 394.278 4012.1 392.256C3834.12 386.527 3837.58 521.688 3837.58 521.688L4142.89 523.71ZM4335.92 368.922C4362 465.339 4312.29 691.884 4312.29 691.884C4312.29 691.884 4052.67 687.445 3910.46 691.884C3866.24 693.267 3813.32 686.957 3800.15 708.037C3781.63 737.577 3806.92 783.048 3828.36 802.257C3853.02 824.372 3901.07 826.893 3918.34 829.136C4033.76 844.162 4275.33 833.017 4275.33 833.017L4233.48 1022.9C4233.48 1022.9 3892.11 1040.45 3721.36 998.682C3687.65 990.455 3656.04 973.825 3634.69 950.247C3628.86 943.797 3623.8 935.001 3618.29 927.401C3613.89 921.335 3601.05 901.405 3595.29 885.647C3556.29 779.155 3599.86 575.143 3642.57 465.815C3647.53 453.149 3653.75 437.077 3660.31 423.423C3668.49 406.399 3675.42 387.178 3681.97 376.998C3686.37 369.979 3691.82 365.459 3696.39 358.835C3701.66 351.003 3707.8 343.414 3713.48 336.64C3729.24 317.907 3747.13 304.66 3768.64 288.205C3839.78 233.611 3968.52 191.23 4123.19 207.452C4181.42 213.588 4269.36 234.901 4312.29 296.269C4323.79 312.655 4329.47 345.192 4335.92 368.934V368.922ZM3396.35 214.866L3594.99 213.669C3594.99 213.669 3484.28 751.789 3427.87 1014.2H3199.36C3039.67 1014.2 2897.45 1034.46 2836.94 917.302C2778.24 803.547 2834.26 616.477 2860.57 489.382C2879.17 399.438 2918.34 215.599 2918.34 215.599L3124.14 213.669C3124.14 213.669 3065.99 499.887 3041.79 642.798C3033.13 693.987 3015.25 742.19 3033.92 780.039C3051.64 816.063 3076.47 818.643 3152.1 820.421C3176.06 821.002 3254.53 820.421 3254.53 820.421L3396.35 214.866V214.866ZM2466.63 602.416C2487.42 526.696 2517.76 444.584 2513.9 376.348C2509.73 303.37 2450.01 236.923 2411.48 222.954C2295.42 180.969 2186.77 239.665 2143.59 287.542C2087.73 349.55 2068.81 421.982 2049.03 521.699C2034.32 595.723 2022.25 673.872 2049.03 731.604C2096.46 833.668 2244.36 811.38 2403.6 812.356C2427.23 747.443 2446.77 674.534 2466.63 602.416V602.416ZM2742.4 303.695C2765.08 472.753 2678.03 659.358 2618.06 821.629C2679.21 827.288 2732.79 820.758 2736.65 825.429C2740.66 831.483 2695.66 1019.12 2679.98 1019.61C2631.46 1020.9 2470.65 1022.27 2403.6 1022.27C2184.79 1022.27 1980.1 1036.88 1875.71 925.39C1833.32 880.093 1804.01 802.408 1796.91 747.756C1785.09 656.522 1799.9 556.073 1820.55 473.252C1839.23 398.473 1863.17 327.913 1899.34 263.313C1991.29 98.8571 2151.23 -23.2182 2419.35 4.96193C2471.35 10.4469 2546.04 33.7812 2592.69 61.4733C2595.92 63.414 2607.2 72.6176 2609.78 74.2329C2672.82 115.335 2730.26 213.425 2742.4 303.695V303.695ZM1774.3 215.843C1761.06 277.607 1747.83 347.621 1733.88 408.653H1513.27C1530.36 340.997 1543.44 273.737 1560.54 214.878C1631.14 214.878 1696.77 215.843 1774.31 215.843H1774.3ZM1505.39 465.176H1718.13C1690.31 622.939 1635.23 877.42 1592.06 1054.57C1565.04 1165.43 1546.99 1246.32 1473.87 1304.85C1467.33 1310.1 1463.55 1307.61 1458.11 1312.93C1444.64 1326.09 1382.31 1341.36 1347.81 1345.22C1291.71 1351.45 1228.29 1346.04 1159.34 1344.58C1177.38 1277.01 1197.79 1195.86 1213.88 1135.29C1381.94 1156.14 1386.19 993.36 1418.72 836.573C1437.55 745.978 1494.6 501.502 1505.39 465.176" fill="#1A1918"/>
<path fill-rule="evenodd" clip-rule="evenodd" d="M1009 876.944L1004.44 889.052C926.764 1044.07 789.106 1139.18 592.762 1143.37C500.974 1145.31 413.519 1121.18 356.387 1094.94C233.096 1038.17 129.39 932.897 72.7574 820.42C-8.4837 659.183 -23.1352 434.893 145.788 267.369C148.396 267.369 125.297 303.695 127.905 303.695L123.255 319.197C1.52969 709.722 376.561 1044.4 741.126 1006.12C828.74 996.916 940.463 947.748 1009 876.944Z" fill="#21609B"/>
<path fill-rule="evenodd" clip-rule="evenodd" d="M788.391 715.462C880.111 716.102 975.913 672.175 1032.65 610.504C983.012 739.61 839.297 822.593 646.582 796.203C485.211 774.077 331.495 607.68 315.664 440.947C304.086 319.604 345.353 247.183 413.36 159.331C389.727 205.279 380.893 240.711 378.693 263.313C352.86 525.801 583.315 714.08 788.391 715.462" fill="#21609B"/>
<path fill-rule="evenodd" clip-rule="evenodd" d="M1023.43 389.432C1009.17 422.946 927.082 486.232 890.827 494.146C747.272 525.487 655.337 455.728 607.175 376.347C600.019 364.494 586.785 332.119 584.415 323.88C565.738 258.804 574.323 160.377 630.037 109.432C613.254 157.878 610.804 214.146 619.638 250.728C624.991 272.842 641.298 311.457 657.616 335.745C687.305 379.985 706.141 390.734 744.278 414.231C761.458 424.806 779.886 433.289 787.847 435.613C824.011 446.525 900.365 475.263 1023.44 389.432" fill="#21609B"/>
</g>
<defs>
<clipPath id="clip0">
<rect width="5810.34" height="1348" fill="white" transform="translate(0.954102)"/>
</clipPath>
</defs>
</svg>
