<svg width="2143" height="1348" viewBox="0 0 2143 1348" fill="none" xmlns="http://www.w3.org/2000/svg">
<g clip-path="url(#clip0)">
<path d="M1059.11 1344.11C1051.86 1344.11 1045.09 1342.13 1038.8 1338.65L974.492 1299.46C964.819 1294 969.656 1292.02 972.559 1291.02C985.613 1286.56 988.031 1285.56 1001.57 1277.63C1003.02 1276.63 1004.96 1277.13 1006.41 1278.12L1055.73 1308.39C1057.66 1309.38 1060.08 1309.38 1061.53 1308.39L1254.47 1193.77C1256.4 1192.78 1257.37 1190.79 1257.37 1188.32V959.587C1257.37 957.102 1256.4 955.123 1254.47 954.127L1061.53 840.01C1059.6 839.014 1057.18 839.014 1055.73 840.01L862.792 954.127C860.86 955.118 859.889 957.6 859.889 959.583V1188.31C859.889 1190.3 860.86 1192.78 862.792 1193.77L915.5 1225.03C944.03 1239.92 961.92 1222.55 961.92 1205.19V979.43C961.92 976.454 964.338 973.475 967.723 973.475H992.382C995.286 973.475 998.185 975.956 998.185 979.43V1205.19C998.185 1244.38 977.392 1267.21 941.126 1267.21C930.006 1267.21 921.303 1267.21 896.64 1254.8L845.869 1225.03C833.296 1217.59 825.561 1203.7 825.561 1188.81V960.081C825.561 945.197 833.296 931.301 845.869 923.861L1038.8 809.247C1050.89 802.301 1067.34 802.301 1079.42 809.247L1272.36 923.861C1284.93 931.301 1292.67 945.197 1292.67 960.081V1188.81C1292.67 1203.7 1284.93 1217.59 1272.36 1225.03L1079.42 1339.65C1073.13 1342.63 1065.88 1344.11 1059.11 1344.11H1059.11ZM1118.59 1186.83C1033.97 1186.83 1016.56 1147.14 1016.56 1113.4C1016.56 1110.42 1018.98 1107.44 1022.36 1107.44H1047.51C1050.41 1107.44 1052.83 1109.43 1052.83 1112.41C1056.7 1138.7 1067.82 1151.6 1119.07 1151.6C1159.69 1151.6 1177.1 1142.17 1177.1 1119.84C1177.1 1106.94 1172.26 1097.52 1108.92 1091.07C1056.21 1085.61 1023.33 1073.7 1023.33 1030.54C1023.33 990.347 1056.21 966.529 1111.34 966.529C1173.23 966.529 1203.69 988.363 1207.56 1035.99C1207.56 1037.48 1207.08 1038.97 1206.11 1040.46C1205.14 1041.45 1203.69 1042.44 1202.24 1042.44H1177.1C1174.68 1042.44 1172.26 1040.46 1171.78 1037.98C1165.98 1010.69 1150.99 1001.76 1111.34 1001.76C1066.85 1001.76 1061.53 1017.64 1061.53 1029.54C1061.53 1043.93 1067.82 1048.4 1127.78 1056.33C1187.25 1064.28 1215.3 1075.69 1215.3 1118.36C1214.82 1162.02 1180 1186.83 1118.59 1186.83Z" fill="#539E43"/>
<path d="M460.48 449.528C460.48 440.599 455.644 432.159 447.908 427.694L242.883 306.631C239.494 304.644 235.629 303.652 231.763 303.154H229.826C225.96 303.154 222.09 304.644 218.705 306.631L13.6808 427.694C5.94072 432.159 1.1084 440.594 1.1084 449.528L1.59372 775.01C1.59372 779.475 4.01197 783.939 7.87783 785.927C11.7479 788.408 16.5802 788.408 19.9691 785.927L141.823 714.479C149.559 710.014 154.395 701.578 154.395 692.649V540.325C154.395 531.395 159.228 522.96 166.968 518.495L218.705 487.731C222.575 485.25 226.926 484.254 231.277 484.254C235.629 484.254 239.98 485.25 243.369 487.731L295.106 518.495C302.846 522.96 307.678 531.391 307.678 540.325V692.649C307.678 701.578 312.515 710.014 320.251 714.479L442.105 785.927C443.987 787.143 446.166 787.788 448.391 787.788C450.615 787.788 452.795 787.143 454.677 785.927C458.547 783.939 460.965 779.475 460.965 775.01L460.48 449.528ZM1445.95 1.48977C1442.09 -0.497891 1437.25 -0.497891 1433.86 1.48977C1429.99 3.97112 1427.58 7.93784 1427.58 12.4026V334.914C1427.58 337.889 1426.13 340.864 1423.22 342.851C1420.33 344.337 1417.42 344.337 1414.52 342.851L1363.27 312.586C1359.51 310.39 1355.26 309.236 1350.93 309.236C1346.61 309.236 1342.36 310.39 1338.6 312.586L1133.58 434.146C1125.84 438.611 1121.01 447.047 1121.01 455.976V698.599C1121.01 707.528 1125.84 715.968 1133.58 720.433L1338.6 841.993C1342.36 844.189 1346.61 845.343 1350.93 845.343C1355.26 845.343 1359.51 844.189 1363.27 841.993L1568.29 720.433C1576.03 715.968 1580.86 707.533 1580.86 698.599V93.7762C1580.86 84.3488 1576.03 75.9174 1568.29 71.4484L1445.96 1.48977H1445.95ZM1427.09 618.719C1427.09 621.201 1426.13 623.184 1424.19 624.176L1354.08 665.852C1353.1 666.342 1352.02 666.597 1350.93 666.597C1349.84 666.597 1348.77 666.342 1347.79 665.852L1277.68 624.176C1275.74 623.184 1274.77 620.703 1274.77 618.719V535.362C1274.77 532.881 1275.74 530.897 1277.68 529.906L1347.79 488.225C1348.77 487.735 1349.84 487.48 1350.93 487.48C1352.02 487.48 1353.1 487.735 1354.08 488.225L1424.19 529.906C1426.13 530.893 1427.09 533.379 1427.09 535.362V618.719ZM2128.24 533.379C2135.98 528.914 2140.33 520.478 2140.33 511.545V452.503C2140.33 443.574 2135.49 435.138 2128.24 430.673L1924.66 309.611C1920.91 307.416 1916.66 306.262 1912.34 306.262C1908.01 306.262 1903.76 307.416 1900.01 309.611L1694.98 431.167C1687.24 435.632 1682.41 444.067 1682.41 453.001V695.624C1682.41 704.553 1687.24 712.989 1694.98 717.454L1898.55 836.533C1906.29 840.998 1915.48 840.998 1922.73 836.533L2046.03 766.085C2049.9 764.097 2052.32 759.632 2052.32 755.168C2052.32 750.703 2049.9 746.238 2046.03 744.251L1840.04 622.69C1836.18 620.213 1833.76 616.242 1833.76 611.777V535.864C1833.76 531.4 1836.18 526.935 1840.04 524.947L1904.36 487.238C1906.24 486.022 1908.42 485.377 1910.64 485.377C1912.87 485.377 1915.05 486.022 1916.93 487.238L1981.24 524.947C1985.11 527.429 1987.53 531.395 1987.53 535.864V595.404C1987.53 599.869 1989.94 604.333 1993.81 606.317C1995.69 607.533 1997.87 608.178 2000.1 608.178C2002.32 608.178 2004.5 607.533 2006.38 606.317L2128.24 533.379V533.379Z" fill="#333333"/>
<path d="M1909.19 521.968C1909.91 521.483 1910.75 521.225 1911.61 521.225C1912.47 521.225 1913.31 521.483 1914.03 521.968L1953.19 545.288C1954.65 546.275 1955.61 547.765 1955.61 549.752V596.392C1955.61 598.375 1954.65 599.865 1953.19 600.856L1914.03 624.176C1913.31 624.66 1912.47 624.919 1911.61 624.919C1910.75 624.919 1909.91 624.66 1909.19 624.176L1870.02 600.856C1868.57 599.865 1867.61 598.375 1867.61 596.392V549.752C1867.61 547.765 1868.57 546.275 1870.02 545.288L1909.19 521.968V521.968Z" fill="#539E43"/>
<mask id="mask0" mask-type="alpha" maskUnits="userSpaceOnUse" x="562" y="307" width="457" height="534">
<path d="M803.315 310.603C799.558 308.408 795.309 307.254 790.986 307.254C786.662 307.254 782.413 308.408 778.656 310.603L575.083 431.163C567.343 435.627 562.992 444.063 562.992 452.993V694.628C562.992 703.557 567.829 711.993 575.083 716.458L778.656 837.027C782.413 839.221 786.662 840.375 790.986 840.375C795.309 840.375 799.558 839.221 803.315 837.027L1006.89 716.458C1014.63 711.993 1018.98 703.557 1018.98 694.628V452.997C1018.98 444.067 1014.14 435.632 1006.89 431.167L803.315 310.603Z" fill="white"/>
</mask>
<g mask="url(#mask0)">
<path d="M803.315 310.603C799.558 308.408 795.309 307.254 790.986 307.254C786.662 307.254 782.413 308.408 778.656 310.603L575.083 431.163C567.343 435.627 562.992 444.063 562.992 452.993V694.628C562.992 703.557 567.829 711.993 575.083 716.458L778.656 837.027C782.413 839.221 786.662 840.375 790.986 840.375C795.309 840.375 799.558 839.221 803.315 837.027L1006.89 716.458C1014.63 711.993 1018.98 703.557 1018.98 694.628V452.997C1018.98 444.067 1014.14 435.632 1006.89 431.167L803.315 310.603Z" fill="url(#paint0_linear)"/>
<path d="M1007.37 431.167L802.834 310.603C800.824 309.562 798.718 308.73 796.546 308.122L567.343 711.01C569.242 713.389 571.535 715.405 574.117 716.965L778.656 837.533C784.459 841.007 791.228 841.998 797.512 840.011L1012.69 436.134C1011.24 434.151 1009.31 432.657 1007.37 431.172V431.167Z" fill="url(#paint1_linear)"/>
<path fill-rule="evenodd" clip-rule="evenodd" d="M1007.86 716.462C1013.66 712.989 1018.01 707.035 1019.95 700.586L795.575 307.623C789.772 306.631 783.484 307.125 778.17 310.598L575.079 430.673L794.123 840.504C797.309 839.969 800.403 838.967 803.311 837.529L1007.85 716.466L1007.86 716.462Z" fill="url(#paint2_linear)"/>
<path fill-rule="evenodd" clip-rule="evenodd" d="M1007.86 716.462L803.8 837.031C800.92 838.538 797.815 839.543 794.613 840.006L798.483 847.45L1024.78 712.993V710.014L1018.98 700.088C1018.01 707.034 1013.66 712.989 1007.86 716.462V716.462Z" fill="url(#paint3_linear)"/>
<path fill-rule="evenodd" clip-rule="evenodd" d="M1007.86 716.462L803.8 837.031C800.92 838.538 797.815 839.543 794.613 840.006L798.483 847.45L1024.78 712.993V710.014L1018.98 700.088C1018.01 707.034 1013.66 712.989 1007.86 716.462V716.462Z" fill="url(#paint4_linear)"/>
</g>
</g>
<defs>
<linearGradient id="paint0_linear" x1="873.923" y1="400.481" x2="642.518" y2="754.84" gradientUnits="userSpaceOnUse">
<stop stop-color="#41873F"/>
<stop offset="0.3288" stop-color="#418B3D"/>
<stop offset="0.6352" stop-color="#419637"/>
<stop offset="0.9319" stop-color="#3FA92D"/>
<stop offset="1" stop-color="#3FAE2A"/>
</linearGradient>
<linearGradient id="paint1_linear" x1="760.078" y1="602.119" x2="1325.38" y2="302.799" gradientUnits="userSpaceOnUse">
<stop offset="0.1376" stop-color="#41873F"/>
<stop offset="0.4032" stop-color="#54A044"/>
<stop offset="0.7136" stop-color="#66B848"/>
<stop offset="0.9081" stop-color="#6CC04A"/>
</linearGradient>
<linearGradient id="paint2_linear" x1="555.554" y1="573.822" x2="1026.62" y2="573.822" gradientUnits="userSpaceOnUse">
<stop offset="0.09192" stop-color="#6CC04A"/>
<stop offset="0.2864" stop-color="#66B848"/>
<stop offset="0.5968" stop-color="#54A044"/>
<stop offset="0.8624" stop-color="#41873F"/>
</linearGradient>
<linearGradient id="paint3_linear" x1="555.557" y1="774.174" x2="1026.62" y2="774.174" gradientUnits="userSpaceOnUse">
<stop offset="0.09192" stop-color="#6CC04A"/>
<stop offset="0.2864" stop-color="#66B848"/>
<stop offset="0.5968" stop-color="#54A044"/>
<stop offset="0.8624" stop-color="#41873F"/>
</linearGradient>
<linearGradient id="paint4_linear" x1="1095.24" y1="389.054" x2="969.83" y2="1029.51" gradientUnits="userSpaceOnUse">
<stop stop-color="#41873F"/>
<stop offset="0.3288" stop-color="#418B3D"/>
<stop offset="0.6352" stop-color="#419637"/>
<stop offset="0.9319" stop-color="#3FA92D"/>
<stop offset="1" stop-color="#3FAE2A"/>
</linearGradient>
<clipPath id="clip0">
<rect width="2142.4" height="1348" fill="white"/>
</clipPath>
</defs>
</svg>
