<svg width="3371" height="1348" viewBox="0 0 3371 1348" fill="none" xmlns="http://www.w3.org/2000/svg">
<g clip-path="url(#clip0)">
<path d="M0.40332 0H3370.4V1155.43H1685.4V1348H936.514V1155.43H0.40332V0ZM187.626 962.857H562.07V385.143H749.292V962.857H936.514V192.571H187.626V962.857ZM1123.74 192.571V1155.43H1498.18V962.857H1872.63V192.571H1123.74ZM1498.18 385.143H1685.4V770.286H1498.18V385.143ZM2059.85 192.571V962.857H2434.29V385.143H2621.51V962.857H2808.74V385.143H2995.96V962.857H3183.18V192.571H2059.85Z" fill="#CB3837"/>
<path d="M187.625 962.856H562.07V385.142H749.292V962.856H936.514V192.57H187.625V962.856Z" fill="white"/>
<path d="M1123.74 192.57V1155.43H1498.18V962.856H1872.63V192.57H1123.74ZM1685.4 770.285H1498.18V385.142H1685.4V770.285Z" fill="white"/>
<path d="M2059.85 192.57V962.856H2434.29V385.142H2621.51V962.856H2808.74V385.142H2995.96V962.856H3183.18V192.57H2059.85Z" fill="white"/>
</g>
<defs>
<clipPath id="clip0">
<rect width="3370" height="1348" fill="white" transform="translate(0.40332)"/>
</clipPath>
</defs>
</svg>
