<svg width="1763" height="1348" viewBox="0 0 1763 1348" fill="none" xmlns="http://www.w3.org/2000/svg">
<path d="M1004.04 371.262L943.741 478.485L737.511 111.692L104.42 1237.54H533.065C533.065 1296.76 579.815 1344.76 637.485 1344.76H104.42C67.1176 1344.76 32.6522 1324.31 14.0042 1291.14C-4.64381 1257.97 -4.64191 1217.1 14.0092 1183.93L647.1 58.0801C665.753 24.9033 700.226 4.46533 737.533 4.46533C774.84 4.46533 809.313 24.9033 827.965 58.0801L1004.04 371.262V371.262Z" fill="#00C58E"/>
<path d="M1461.06 1183.93L1064.35 478.486L1004.04 371.263L943.74 478.486L547.074 1183.93C528.423 1217.1 528.421 1257.97 547.069 1291.14C565.717 1324.32 600.182 1344.76 637.485 1344.76H1370.51C1407.82 1344.76 1442.3 1324.34 1460.96 1291.16C1479.62 1257.98 1479.62 1217.11 1460.97 1183.93H1461.06ZM637.485 1237.54L1004.04 585.71L1370.51 1237.54H637.485L637.485 1237.54Z" fill="#2F495E"/>
<path d="M1744.69 1291.15C1726.04 1324.32 1691.58 1344.76 1654.28 1344.76H1370.52C1428.19 1344.76 1474.94 1296.76 1474.94 1237.54H1654.06L1145.79 333.599L1064.35 478.485L1004.04 371.261L1055.38 279.987C1074.04 246.811 1108.51 226.373 1145.82 226.373C1183.12 226.373 1217.6 246.811 1236.25 279.987L1744.69 1183.93C1763.34 1217.1 1763.34 1257.97 1744.69 1291.15V1291.15Z" fill="#108775"/>
</svg>
