<svg width="1349" height="1348" viewBox="0 0 1349 1348" fill="none" xmlns="http://www.w3.org/2000/svg">
  <g clip-path="url(#clip0_202_712)">
    <path
      d="M0.895508 259.069L230.477 0L700.171 101.1L763.358 292.769L717.021 625.556L530.289 529.994L540.096 796.162V1027.85L129.377 1032.06L0.895508 259.069Z"
      fill="url(#paint0_linear_202_712)" />
    <path
      d="M426.358 789.844L451.633 471.8L832.864 80.0375L1174.08 143.225L1348.9 579.219L1165.65 760.356L868.67 711.912L681.214 905.688L426.358 789.844Z"
      fill="url(#paint1_linear_202_712)" />
    <path d="M832.864 80.0375L285.239 566.581L390.552 1190.03L845.502 1348L1348.9 1046.81L832.864 80.0375Z"
      fill="url(#paint2_linear_202_712)" />
    <path d="M1096.15 252.75H253.646V1095.25H1096.15V252.75Z" fill="black" />
    <path
      d="M333.683 937.281H649.621V989.938H333.683V937.281ZM329.471 362.275H472.696C556.946 362.275 607.496 410.719 607.496 482.331C607.496 562.369 544.308 604.494 466.377 604.494H407.402V709.806H329.471V362.275ZM468.483 541.306C505.237 541.306 529.564 516.031 529.564 486.544C529.564 452.844 506.396 433.888 466.377 433.888H407.402V541.306H468.483ZM626.452 661.363L672.789 606.6C704.383 631.875 738.083 648.725 778.102 648.725C809.696 648.725 828.652 636.088 828.652 615.025C828.652 596.069 816.014 585.538 757.039 570.794C685.427 551.838 641.196 532.881 641.196 463.375V461.269C641.196 398.081 691.746 355.956 763.358 355.956C810.597 355.754 856.553 371.32 893.946 400.188L853.927 459.163C822.333 438.1 792.846 425.463 763.358 425.463C733.871 425.463 719.127 438.1 719.127 457.056C719.127 480.225 733.871 488.65 794.952 503.394C866.564 522.35 906.583 547.625 906.583 608.706C906.583 678.213 853.927 718.231 778.102 718.231C722.205 718.987 668.069 698.686 626.452 661.363Z"
      fill="white" />
  </g>
  <defs>
    <linearGradient id="paint0_linear_202_712" x1="11.2161" y1="1487.46" x2="853.088" y2="486.191"
      gradientUnits="userSpaceOnUse">
      <stop offset="0.02" stop-color="#765AF8" />
      <stop offset="0.38" stop-color="#B345F1" />
      <stop offset="0.76" stop-color="#FA3293" />
      <stop offset="0.94" stop-color="#FF318C" />
    </linearGradient>
    <linearGradient id="paint1_linear_202_712" x1="980.091" y1="893.471" x2="717.834" y2="116.286"
      gradientUnits="userSpaceOnUse">
      <stop offset="0.18" stop-color="#765AF8" />
      <stop offset="0.24" stop-color="#8655F6" />
      <stop offset="0.34" stop-color="#9F4CF3" />
      <stop offset="0.44" stop-color="#AE47F2" />
      <stop offset="0.52" stop-color="#B345F1" />
    </linearGradient>
    <linearGradient id="paint2_linear_202_712" x1="1218.83" y1="1104.52" x2="404.614" y2="661.447"
      gradientUnits="userSpaceOnUse">
      <stop offset="0.02" stop-color="#765AF8" />
      <stop offset="0.38" stop-color="#B345F1" />
    </linearGradient>
    <clipPath id="clip0_202_712">
      <rect width="1348" height="1348" fill="white" transform="translate(0.895508)" />
    </clipPath>
  </defs>
</svg>