<svg width="1349" height="1348" viewBox="0 0 1349 1348" fill="none" xmlns="http://www.w3.org/2000/svg">
  <path
    d="M251.351 563.072C253.185 564.457 256.369 565.357 253.185 568.09C250.903 571.272 248.167 574.005 246.352 577.657C244.536 580.857 243.17 581.757 240.437 579.491C243.857 573.874 247.492 568.392 251.335 563.056L251.351 563.072ZM1166.41 1040.83C1166.41 1042.18 1166.86 1043.08 1166.86 1044.46C1167.77 1042.65 1167.77 1041.73 1168.24 1040.83L1166.41 1040.83ZM1166.41 1044.92V1044.46V1044.92ZM1073.54 1222.7L994.312 783.262C992.964 782.827 991.146 781.927 987.946 781.011C988.864 782.827 989.331 784.193 989.78 785.56C992.03 785.111 992.964 785.111 993.864 784.66C993.864 784.212 993.864 783.761 994.331 783.278L1073.56 1222.75L1073.54 1222.7ZM991.598 684.342C991.147 685.69 991.146 687.075 991.146 688.442C991.146 687.056 991.147 685.674 991.632 684.323L991.598 684.342ZM992.046 693.441C991.598 693.441 991.598 693.441 991.146 692.958V693.406C991.632 693.858 991.632 693.858 992.081 693.406L992.046 693.441ZM991.146 697.074V693.874C989.815 694.325 988.451 694.325 986.614 694.792C988.899 695.657 991.181 696.14 991.181 697.039L991.146 697.074Z"
    fill="#DD3735" />
  <path
    d="M1345.77 586.322C1344.87 568.539 1344.42 550.757 1342.58 532.99C1339.4 508.823 1336.22 484.204 1330.75 460.504C1326.65 440.903 1319.85 422.203 1313 403.52C1304.35 381.635 1295.7 359.301 1284.77 338.337C1267.02 304.6 1243.8 274.499 1222.4 243.05C1208.25 222.983 1190.05 206.583 1176.39 186.064C1168.66 174.213 1157.27 164.197 1145.89 155.101C1127.67 140.481 1108.56 127.247 1089.44 114.496C1074.87 104.462 1060.31 94.8955 1044.81 86.2284C1032.53 79.3604 1019.33 73.8965 1006.58 67.96C992.009 61.1267 977.894 52.9108 961.51 49.729C957.394 48.8615 953.762 47.4788 949.659 46.0935C939.195 42.4633 929.178 38.3606 918.696 35.1602C902.779 30.1447 887.297 24.2269 870.897 20.1109C855.015 16.0109 838.615 13.2936 822.215 10.9954C804.016 8.3128 785.369 7.36255 767.135 5.57948C755.302 4.19414 743.469 2.84616 732.088 2.39506C714.786 1.49552 697.038 1.49552 679.738 1.04708C671.087 0.579962 661.988 -0.338263 653.339 0.128857C640.137 0.579962 626.94 1.94395 613.722 3.76172C600.99 5.14706 588.239 7.39458 575.958 9.24704C560.956 11.0621 545.942 11.9804 530.909 13.8115C516.793 15.6479 502.227 18.3812 488.128 20.6635C483.11 21.5817 478.092 23.3968 473.076 24.2963C462.178 26.5812 450.796 27.4994 439.863 31.1483C420.313 37.1007 400.713 43.9501 381.598 51.2158C363.832 58.5162 346.532 66.2651 329.7 75.3832C312.4 84.9312 296 96.3156 279.617 107.281C264.116 117.766 248.653 128.699 233.599 140.55C219.07 151.967 205.403 164.718 192.185 177.485C184.919 184.751 178.986 193.434 172.152 201.634C160.787 214.868 149.405 227.619 138.472 241.302C129.407 252.721 121.172 264.551 112.521 276.421C97.0741 297.353 83.8746 319.703 71.5907 342.055C66.5725 351.171 62.024 360.286 57.473 369.389C50.6397 383.055 43.3579 396.289 36.9917 410.423C32.4246 420.006 28.7918 430.491 26.0585 440.973C19.7083 463.325 13.3261 486.126 7.40835 508.441C1.94171 528.508 0.575055 549.475 0.142635 569.994C-0.324485 588.225 1.49328 606.01 3.30837 624.244C3.77549 628.808 1.06086 634.278 6.4928 637.911C4.6777 642.929 6.0417 645.694 8.74032 646.559C5.59059 651.577 10.1257 654.794 8.32658 659.361C7.85946 660.26 9.70926 662.078 10.5741 663.445C10.5741 664.827 10.1417 666.645 10.5741 668.009C11.0599 672.112 12.875 676.212 12.875 680.779C12.875 683.961 15.5923 687.612 16.5079 690.813C16.959 692.161 16.5079 694.443 15.5923 695.361C12.859 698.545 13.3074 701.279 17.4074 703.113C19.7083 709.028 18.7927 711.761 18.3416 714.529C19.2412 718.613 17.8745 719.98 18.3416 720.895C21.9745 728.196 23.3598 736.396 23.7923 744.598C23.7923 746.429 24.7078 748.263 25.626 750.529C26.0745 750.529 25.626 759.178 25.626 759.178C27.8736 757.83 29.726 757.381 31.9922 756.463C33.3749 762.381 34.7255 767.882 36.5406 772.898C38.8255 776.53 38.8255 778.33 37.926 778.781C39.7411 786.981 40.6406 794.729 43.8064 802.481C43.8064 793.833 42.9415 785.182 41.5588 776.963C47.925 779.248 53.3917 781.514 57.0405 781.514C57.5077 780.129 57.9588 778.33 58.4259 777.414C55.6926 774.697 53.4077 770.597 50.6744 767.863C51.5926 771.496 50.6744 772.882 50.6744 774.264C48.8593 773.33 46.5744 772.414 44.3082 771.496C46.1233 769.249 47.941 766.948 50.6744 764.231C50.6744 760.115 48.4268 756.447 42.026 756.914C44.7593 756.015 47.4926 754.664 50.6744 753.73C55.6926 751.015 50.2259 745.997 50.2259 739.615C50.6744 731.882 46.1259 724.133 44.7593 715.912C42.4744 703.163 42.9442 684.014 41.5749 671.247C38.8415 668.962 36.5567 674.877 36.1082 675.347C37.4936 686.28 38.8415 697.214 39.7411 708.163C37.0264 699.047 35.1927 689.014 32.9265 678.062C32.4593 681.265 32.0082 682.629 32.0082 684.462C29.7607 686.713 31.5598 689.481 32.9265 692.662C29.742 691.28 26.0932 691.763 26.0932 691.763V704.53C21.5608 699.965 20.2101 696.33 17.9092 693.114C17.0097 689.481 16.5265 685.848 15.6617 682.215C16.5265 679.914 15.6617 678.547 15.6617 677.197C15.1759 673.98 14.7275 670.347 14.2764 666.229C14.7275 665.78 13.8279 658.963 13.8279 658.963C17.4581 659.395 19.7617 659.828 22.0279 659.828C17.4768 653.948 20.6425 650.28 22.495 646.628C23.4106 644.795 26.595 644.381 27.5132 642.512C31.1434 635.679 37.0772 630.228 37.0772 621.545C37.0772 617.445 38.4625 612.897 38.8923 608.778C39.8105 601.027 40.71 593.278 41.1424 585.529C42.0767 575.493 41.1424 565.459 43.4433 555.892C47.1109 539.978 51.662 524.011 56.6615 508.043C60.2917 496.627 64.4103 485.728 68.9427 474.309C75.776 456.527 82.1609 438.741 90.8093 421.893C103.093 397.256 117.208 373.558 130.875 349.407C139.523 334.357 148.625 320.224 158.208 305.639C167.292 291.505 176.372 276.923 186.876 263.689C201.458 245.004 217.391 227.67 235.139 212.172C253.356 195.769 270.656 178.902 290.222 163.853C315.658 144.199 342.759 126.799 371.217 111.851C394.451 99.5667 418.567 89.9494 442.7 80.8339C458.182 74.9161 475.014 72.1828 490.966 67.1673C509.165 61.2308 527.38 58.5162 546.497 58.0491C558.778 57.582 570.627 56.2153 582.911 54.846C593.844 53.9838 604.762 53.0496 616.61 51.6829C615.228 53.498 614.777 54.4162 614.328 55.3131C609.345 62.6162 603.878 69.9139 598.862 77.201C594.762 83.1321 590.214 89.517 586.111 95.432C578.811 105.033 571.062 114.6 564.245 124.634C553.781 139.686 544.212 155.186 533.281 170.219C522.38 184.801 510.531 198.487 499.147 212.602C484.132 232.221 470.015 252.27 454.997 271.87C441.331 290.555 426.802 308.372 413.584 327.057C401.751 343.438 391.269 360.791 379.885 377.623C363.052 402.706 346.204 427.306 329.372 452.389C316.157 471.483 302.802 490.479 289.306 509.375C288.388 510.758 287.021 511.174 285.673 512.092C282.04 518.008 282.04 521.208 280.655 523.941C277.022 530.775 273.389 537.608 269.273 544.009C266.988 547.642 263.807 550.826 261.073 554.475C260.622 549.008 268.339 546.275 264.703 539.426C262.456 543.093 260.155 546.275 257.889 549.927L252.422 560.825C254.237 562.208 257.44 563.126 254.237 565.841C252.855 568.142 251.507 570.859 250.14 573.16C252.422 571.774 253.77 570.426 255.156 568.593C255.156 573.608 252.422 577.692 250.137 581.792C248.322 585.422 243.774 588.193 240.589 590.908C241.04 591.375 244.222 592.741 244.689 593.193C248.789 591.807 250.156 589.56 250.623 590.908C252.006 589.093 253.356 587.726 253.808 586.359C255.607 581.792 258.34 578.159 262.888 576.323C264.722 575.407 266.073 574.041 267.439 572.693C281.106 558.54 295.221 544.874 307.505 529.824C326.638 506.556 343.938 482.424 362.171 458.723C369.886 448.687 379.004 438.656 387.185 429.071C388.536 439.555 387.636 449.57 387.185 459.172C385.802 476.023 384.903 492.906 383.555 510.208C383.085 517.041 383.555 523.875 383.085 530.724C383.085 532.539 381.702 533.906 381.702 535.742C381.702 540.29 383.085 545.306 383.085 549.873C381.702 566.743 379.869 583.14 378.502 600.007C378.035 603.64 379.85 607.308 380.749 610.508C378.502 635.108 383.517 661.109 379.401 687.092C382.583 682.076 383.501 678.892 383.501 675.71C383.934 672.977 383.501 670.243 383.501 667.062V662.492C383.934 654.276 385.749 645.625 384.849 637.409C383.934 628.291 383.934 619.642 385.768 610.975C386.683 607.342 385.316 602.775 387.601 598.208V605.041C387.15 630.992 388.068 656.99 384.436 682.976C383.969 685.258 385.818 689.377 380.803 688.909C376.684 697.109 381.702 703.043 377.17 707.594C376.236 708.51 378.035 712.61 378.502 715.343C376.668 720.826 376.668 720.826 379.401 721.277C379.85 731.311 380.784 740.41 381.217 749.993C388.482 732.696 384.849 714.876 388.069 697.091C388.517 704.391 388.984 711.692 388.517 719.408C388.517 731.292 388.069 742.676 387.617 754.525C387.617 756.81 387.15 759.092 386.702 761.377C385.317 767.778 384.887 774.144 382.602 780.062C380.787 784.626 381.702 791.478 381.702 796.926V814.276C383.517 822.028 381.235 826.128 382.602 830.679C381.217 835.262 380.787 836.631 381.217 837.995L382.602 844.829C391.717 843.913 387.62 850.763 391.25 854.395C388.517 858.063 389.435 859.414 389.435 861.263C389.435 865.363 389.003 869.015 388.536 873.115C388.536 883.597 388.085 894.082 388.085 904.116C388.085 905.498 388.536 906.83 388.536 908.2C388.536 909.134 388.085 920.999 388.085 920.999C389.003 922.349 388.085 923.716 386.702 925.083C386.269 925.083 384.903 867.181 384.903 867.181H378.069C377.17 894.514 379.452 919.13 374.437 944.683C368.97 945.115 367.171 946.031 361.218 946.031C347.103 946.031 332.986 946.031 318.871 946.482C302.02 946.482 285.654 946.931 268.787 946.931C260.622 946.931 251.971 947.865 243.774 947.865C232.841 947.865 221.456 946.482 210.558 946.482C193.691 946.482 177.307 947.865 160.458 948.316C148.174 948.764 135.893 948.764 123.609 949.231C115.393 949.664 107.175 950.096 99.0093 951.031C95.3791 951.482 92.176 952.846 87.6276 954.215C86.2422 954.215 83.0765 953.764 80.3618 954.215C75.7761 955.13 71.7134 957.845 67.1277 958.779C60.2944 960.167 58.4793 961.964 59.3761 968.816V973.364C58.9277 974.264 69.4125 971.982 69.4125 971.982C68.4783 971.982 68.0245 974.715 66.6419 977C70.3094 975.612 72.5756 974.715 74.8605 973.815C81.6938 977.016 87.6089 975.198 93.0595 976.583C110.81 981.116 129.006 982.984 147.208 984.765C159.057 985.683 170.441 986.15 182.274 986.58C199.106 987.498 215.955 988.416 232.787 988.416C246.905 988.416 260.571 987.031 274.652 987.031C294.201 987.031 313.818 987.93 333.383 988.416C337.483 988.416 342.032 987.93 346.583 987.93H379.799C409.415 987.031 438.998 986.548 468.597 985.683C485.464 985.197 502.764 984.297 519.596 983.83L571.495 982.448C591.527 981.997 611.56 981.997 631.142 981.583C646.159 981.583 660.725 981.062 675.774 980.63C692.591 980.182 709.888 978.815 726.739 977.915C735.857 977.448 744.972 976.53 754.072 975.63C765.005 974.731 776.387 973.383 787.288 972.916C803.688 971.982 820.536 971.53 836.936 970.615C857.42 969.264 877.904 967.449 898.836 966.982C917.97 966.082 937.535 966.531 956.668 966.082C973.517 965.615 990.368 964.697 1007.67 964.249L1036.38 962.863C1036.38 962.863 1055.48 962.415 1065.05 961.481C1081.43 960.581 1097.81 958.763 1114.21 958.315C1124.66 957.848 1135.15 958.315 1145.61 957.848C1162.44 957.397 1179.74 956.463 1196.59 956.463C1202.94 956.463 1209.78 957.397 1217.98 957.848C1214.35 961.048 1212.06 962.866 1209.33 965.148C1211.14 965.597 1212.96 966.531 1214.79 967.43C1212.06 969.246 1209.78 969.681 1207.53 969.681C1206.59 971.982 1205.68 972.897 1204.76 977.464H1212.96C1209.78 977.464 1207.04 981.564 1203.86 984.297C1200.23 983.363 1197.02 984.297 1195.21 989.316C1198.39 991.115 1197.94 992.481 1197.49 994.334C1192.03 996.13 1187.93 997.964 1190.23 1003.88C1188.38 1004.78 1186.11 1005.7 1183.83 1007.06C1181.58 1010.7 1177.46 1011.61 1178.36 1016.63C1180.19 1017.06 1181.99 1018.02 1183.38 1018.43C1181.09 1019.35 1178.83 1020.71 1176.55 1021.61C1168.36 1026.63 1172.01 1028.91 1173.83 1031.2C1172.44 1032.11 1171.1 1033.01 1169.73 1033.48C1170.63 1037.58 1171.98 1038.5 1172.44 1038.5C1170.12 1040.26 1167.84 1042.08 1165.61 1043.96C1164.23 1048.06 1162.41 1049.88 1160.59 1052.61C1158.77 1055.34 1157.86 1059.02 1155.58 1061.73C1146.03 1072.23 1139.19 1084.57 1126.91 1092.75C1122.35 1095.95 1118.26 1100.05 1114.16 1104.17C1105.96 1111.9 1098.68 1120.57 1090.03 1127.87C1078.66 1137.43 1066.85 1146.08 1054.53 1154.75C1039.53 1165.23 1024.52 1175.72 1009.48 1185.75C1001.28 1191.2 992.186 1195.3 983.535 1200.32C974.886 1205.34 966.683 1209.9 958.035 1214.9C952.568 1218.53 947.55 1223.55 941.635 1226.32C926.618 1232.72 910.669 1238.17 895.203 1244.1C880.151 1250.5 869.253 1255.95 857.871 1260.05C847.402 1263.68 836.469 1266.45 825.555 1268.7C821.922 1269.64 817.803 1268.7 813.703 1269.17C805.954 1270.55 798.221 1272.39 790.47 1273.29C770.437 1276.02 750.404 1277.85 730.39 1280.59C718.539 1281.97 707.157 1284.22 695.324 1285.61C687.14 1286.05 678.492 1285.15 670.292 1285.15C664.374 1285.15 658.008 1286.54 652.074 1285.62C642.526 1284.24 632.96 1281.99 623.393 1280.16C621.143 1279.7 617.926 1278.77 616.127 1279.7C612.494 1281.54 609.275 1278.8 605.626 1279.7C603.376 1280.17 601.094 1278.32 598.809 1278.32C596.975 1277.89 594.693 1278.8 592.408 1278.32C587.39 1276.97 582.86 1275.16 577.359 1275.6C571.943 1276.06 566.46 1273.32 560.577 1271.97C552.361 1270.14 544.663 1268.34 536.429 1266.49C533.263 1265.57 530.545 1264.2 527.345 1262.39C515.494 1262.39 507.745 1261.94 500.463 1259.19C494.097 1256.94 488.179 1253.74 481.346 1254.66C479.547 1255.1 478.18 1254.2 476.328 1254.2C474.945 1252.37 473.613 1248.72 472.265 1248.72C463.163 1249.19 457.699 1241.46 449.95 1239.16C445.866 1237.77 442.682 1233.22 438.582 1231.86C428.548 1227.76 420.383 1219.1 409.001 1217.74C405.368 1217.27 401.735 1215.46 397.616 1214.1C399.002 1215.9 399.867 1217.27 401.249 1218.64C388.05 1212.24 375.769 1204.97 363.469 1198.12C361.67 1197.67 360.303 1195.87 358.936 1194.94L346.652 1186.74C339.819 1188.12 337.086 1185.35 335.236 1184.45C322.952 1175.81 308.853 1170.32 297.004 1160.75C291.986 1156.64 286.106 1153.9 282.473 1148.89C276.072 1141.14 268.339 1135.67 259.688 1131.12C252.873 1127.49 246.507 1123.37 240.141 1119.27C236.938 1116.99 233.74 1114.25 233.74 1109.23C233.74 1106.03 232.389 1102.83 228.289 1104.67C226.474 1101.93 224.657 1098.75 222.374 1097.84C216.908 1095.59 213.272 1091.43 209.172 1087.8C205.072 1084.17 201.906 1079.15 196.891 1077.34C187.773 1073.7 182.306 1065.95 176.858 1059.57C164.091 1044.52 152.707 1028.08 140.877 1012.17C139.958 1010.78 138.141 1009.87 136.774 1008.5C138.592 1013.52 140.874 1017.62 143.14 1022.17C138.608 1020.35 135.426 1017.15 132.693 1013.97C132.226 1014.43 164.091 1066.85 164.091 1066.85C166.859 1070.95 169.109 1075.07 171.84 1079.17C165.007 1079.62 160.458 1075.97 158.173 1071.87C154.089 1064.6 149.525 1060.04 140.423 1060.97C139.526 1057.75 138.608 1054.1 138.175 1050.94C136.325 1050.94 134.975 1050.94 131.774 1050.47C138.175 1060.5 143.626 1069.15 149.541 1079.19C147.24 1077.8 145.911 1076.9 144.958 1076.45C153.139 1085.1 159.057 1096.05 169.523 1101.54C171.808 1112 183.641 1117.02 186.374 1127.05C184.124 1126.59 182.255 1126.14 179.973 1125.67C176.34 1121.12 172.24 1116.57 168.156 1111.55C169.056 1114.74 170.407 1117.47 172.24 1119.75C177.707 1126.59 182.723 1133.42 189.089 1139.35C191.374 1141.67 194.555 1142.59 194.555 1146.69C198.188 1148.5 199.574 1148.94 200.922 1148.94C201.856 1151.71 200.489 1155.81 205.94 1154.89C209.57 1161.72 213.205 1161.72 218.221 1159.45C224.155 1165.39 227.355 1165.86 231.439 1162.22C231.439 1164.47 231.888 1166.75 231.888 1168.59C233.703 1167.67 233.273 1166.31 233.273 1164.02C235.52 1165.84 236.903 1166.75 237.805 1167.65C242.354 1174.06 246.454 1179.97 252.82 1184.99C261.468 1192.29 269.22 1200.04 277.385 1206.87C293.337 1220.11 311.119 1231.06 328.851 1241.07C350.718 1253.39 371.666 1266.61 393.968 1278.44C420.815 1292.59 449.499 1302.18 479.079 1309.01C490.013 1311.29 500.479 1313.56 511.431 1316.28C520.944 1319.04 530.529 1323.14 540.096 1325.41C554.662 1328.61 569.677 1331.34 584.246 1334.06C587.409 1334.53 590.644 1334.99 594.277 1335.44C598.342 1336.36 603.341 1334.53 604.26 1335.91C606.542 1339.54 608.36 1337.71 611.093 1337.26C614.275 1336.34 617.926 1336.34 621.556 1336.34C634.307 1336.79 646.591 1339.53 659.34 1338.63C662.108 1338.63 666.192 1336.32 668.474 1340.88C672.558 1339.06 674.84 1339.06 676.658 1338.63C677.141 1342.71 676.658 1342.71 675.793 1343.16C674.859 1343.61 673.492 1344.08 671.674 1345.44C688.058 1348.62 703.54 1349.07 717.172 1345.44C740.875 1347.26 761.356 1344.52 780.94 1337.69C782.756 1339.98 784.122 1343.16 786.856 1338.61C787.755 1337.22 790.037 1336.76 791.874 1336.31C795.955 1335.39 800.971 1333.58 804.606 1334.92C808.722 1336.31 810.089 1332.68 813.255 1332.68C818.737 1332.68 823.737 1332.21 828.755 1331.29C831.488 1330.84 834.222 1329.48 837.403 1328.56C833.773 1326.71 830.138 1326.26 827.37 1326.26C832.485 1323.73 837.653 1321.3 842.87 1318.99C841.954 1320.34 841.036 1322.16 839.24 1322.16H845.587C844.205 1322.16 842.387 1326.26 840.121 1328.99C856.486 1324.89 871.503 1321.24 886.085 1317.57C881.067 1308.02 891.536 1311.22 895.187 1305.74C890.636 1307.12 886.085 1308.47 881.521 1309.37C897.003 1301.64 912.935 1294.81 928.401 1287.97C926.151 1290.71 923.383 1292.07 919.318 1294.37C922.051 1294.81 923.869 1294.81 925.235 1295.24C932.501 1297.54 930.702 1290.71 932.968 1286.59C941.617 1286.59 945.249 1285.24 949.349 1283.85C953.9 1282.47 958.451 1281.12 963.016 1279.31C970.282 1276.12 977.115 1272.04 984.397 1268.41C985.785 1267.92 988.032 1268.41 989.866 1268.41C994.884 1265.19 996.681 1262.46 998.047 1262.91C1004.45 1263.82 1008.95 1261.52 1010.78 1255.64C1013.96 1253.34 1016.25 1251.52 1018.51 1250.14C1028.51 1244.67 1038.06 1239.21 1048.1 1233.74C1051.73 1233.74 1053.56 1233.74 1054.46 1233.27C1060.41 1230.5 1065.88 1227.35 1071.33 1224.15C1069.94 1223.71 1066.78 1221.91 1066.78 1221.91C1071.31 1220.97 1072.66 1220.52 1075.43 1219.61C1086.33 1206.8 1101.38 1198.16 1112.74 1188.12C1117.76 1187.67 1117.76 1186.3 1117.76 1185.4C1119.56 1183.12 1121.39 1180.39 1123.64 1178.56C1133.68 1169.44 1144.57 1161.69 1153.69 1152.12C1166.89 1138.87 1179.64 1125.19 1191.47 1111.05C1202.37 1098.29 1213.34 1085.53 1222.44 1071.4C1235.19 1051.8 1246.1 1031.74 1257.49 1011.2C1265.69 996.632 1272.97 982.05 1281.19 967.465C1282.05 966.082 1283.9 964.265 1285.27 964.265C1297.55 962.882 1309.87 962.017 1321.7 960.635C1324.44 960.181 1327.62 958.384 1330.35 956.999C1328.97 954.717 1328.07 951.981 1326.72 949.699C1324.89 946.931 1322.15 944.68 1320.32 941.915C1318.52 939.665 1317.15 936.897 1315.79 934.182C1314.4 931.932 1313.05 930.098 1311.69 927.781C1308.92 922.763 1306.2 917.745 1303.9 912.316C1303.45 910.93 1302.52 908.683 1303 907.297C1311.2 889.531 1314.39 870.382 1322.12 852.596C1329.85 834.365 1332.15 813.847 1335.79 794.246C1338.97 775.562 1340.8 756.877 1343.05 738.195C1344.43 724.979 1346.25 712.212 1346.68 698.994C1349.45 678.027 1348.52 658.41 1348.07 638.791C1347.62 621.495 1346.68 603.709 1345.82 586.375L1345.77 586.322ZM203.572 1147.49C200.388 1143.85 197.654 1139.74 194.47 1136.1L195.858 1134.72C200.823 1140.2 205.838 1145.67 210.838 1151.6C208.104 1150.22 204.92 1149.32 203.572 1147.49ZM210.838 1151.6C212.22 1151.14 213.606 1151.14 214.954 1150.69C216.339 1152.97 217.239 1155.71 218.587 1158.44C212.22 1157.97 209.039 1155.24 210.854 1151.6H210.838ZM684.324 1339.87V1338.49C692.972 1337.59 701.156 1336.67 709.807 1335.77V1337.11C701.156 1338.49 692.972 1339.36 684.324 1339.84V1339.87ZM799.022 1328.02C792.669 1329.41 785.836 1330.32 779.472 1331.24C777.188 1331.69 774.454 1333.98 773.555 1329.86C772.639 1330.32 771.721 1330.32 770.821 1330.79C773.072 1337.61 778.554 1332.14 783.105 1334.88C773.069 1336.26 763.556 1337.16 753.973 1338.51V1337.61C756.741 1337.16 759.907 1336.69 762.621 1336.22V1334.88C758.089 1334.41 753.541 1333.96 748.955 1333.96C747.623 1333.96 745.789 1335.79 744.422 1336.24C742.607 1336.69 740.79 1337.16 738.507 1337.16C730.774 1337.61 723.039 1337.61 715.739 1338.06C715.274 1338.06 714.356 1337.61 713.908 1337.61V1336.22C744.406 1332.14 774.454 1328.04 804.956 1323.94C805.42 1324.84 805.42 1325.76 805.871 1326.66C803.138 1326.66 801.32 1327.61 799.038 1328.04L799.022 1328.02ZM805.871 1323.49C816.354 1322.11 825.939 1321.21 835.938 1319.86C815.006 1325.78 808.172 1326.68 805.887 1323.49H805.871ZM409.345 403.069C423.877 383.002 438.929 362.934 453.495 342.434C458.043 336.466 461.676 330.084 466.227 324.166C467.61 322.332 469.427 321.433 471.694 319.602L471.243 318.734C473.058 316.433 474.875 314.583 475.794 312.782C478.111 309.151 479.477 305.033 481.292 300.933C481.746 300.068 483.11 299.152 483.11 299.152C489.511 302.334 489.511 295.52 491.758 293.219C495.861 288.652 499.961 283.652 503.594 279.085C506.327 275.452 509.061 272.252 511.343 268.152C511.794 266.766 510.427 264.519 509.96 262.666H508.609C509.995 261.767 511.343 260.419 512.709 259.485C513.161 259.485 513.161 259.485 513.609 259.034C516.342 254.918 519.076 250.818 521.809 247.166C527.26 239.9 533.175 232.6 539.541 226.234C538.641 228.484 537.726 230.785 536.808 232.6C537.275 232.6 537.275 233.067 537.726 233.067C543.192 225.767 549.107 218.933 554.574 211.617C554.107 211.184 553.659 210.717 553.191 210.717C550.941 212.999 549.107 215.282 546.825 217.567C546.374 217.099 545.926 216.651 545.44 216.651C550.026 210.717 554.574 204.8 559.107 197.966C560.025 199.352 560.94 201.151 562.739 204.8C564.592 200.251 566.407 197.067 567.758 193.866C566.407 195.252 564.592 196.6 563.225 197.985L561.84 196.6L570.04 184.318C578.688 172 587.339 159.233 595.99 146.917C599.191 142.366 603.256 138.717 606.024 134.15C614.672 116.85 628.339 103.149 638.789 87.1974C641.071 84.0156 644.256 81.2823 646.989 78.549C649.237 75.781 651.089 76.7152 652.904 78.9974C665.188 94.4978 677.472 110.449 689.753 125.95C698.888 137.366 707.987 148.265 716.638 160.132C727.102 174.733 737.119 189.318 747.602 203.9C759.437 220.77 771.27 237.634 782.652 254.936C799.951 280.486 816.335 306.02 833.634 331.536C846.383 350.221 859.134 368.47 871.415 387.155H848.166C826.785 386.723 804.916 384.905 783.535 385.805C754.403 387.19 724.819 390.372 695.687 392.657C658.803 395.857 621.471 396.287 584.625 396.287C571.39 396.287 558.191 398.139 545.008 399.057C529.059 399.957 513.574 400.873 497.642 401.305C478.957 402.239 460.795 402.69 442.11 403.157C431.628 403.606 420.711 403.157 409.329 403.157L409.345 403.069ZM931.497 612.74V616.858C931.046 616.858 930.598 617.325 929.682 617.325C927.864 610.924 926.047 604.072 923.765 597.69C919.213 584.456 914.198 571.222 905.998 559.386C896.864 546.638 888.698 533.441 879.564 520.204C877.314 517.004 874.098 514.271 871.364 511.556C861.798 501.055 852.231 490.103 839.947 482.37C821.85 471.019 802.808 461.249 783.033 453.169C777.567 450.921 772.567 448.15 767.116 444.969H778.015L855.864 443.586C872.712 443.154 889.112 443.154 905.945 442.235C910.028 442.235 912.311 443.621 914.593 447.254C918.677 454.087 922.777 460.92 927.325 467.769C927.795 468.669 928.713 470.02 928.713 471.402C928.713 481.439 928.713 491.921 929.162 501.955C929.594 512.437 930.544 522.471 930.961 532.955C930.961 543.438 930.043 554.371 930.51 565.307C930.977 580.823 931.428 596.791 931.428 612.705L931.497 612.74ZM441.643 460.093C463.043 459.174 483.508 457.808 504.477 456.89C520.824 455.974 537.691 455.507 554.056 454.607C560.89 454.175 567.272 453.742 574.089 454.607C566.823 458.275 559.523 461.926 553.157 466.475C544.957 471.941 537.24 479.226 529.024 485.16C520.805 491.075 513.524 498.375 506.709 506.127C498.058 516.59 488.491 525.708 479.376 535.742C472.972 543.042 465.709 549.876 460.259 557.627C452.526 567.661 445.692 578.56 438.408 589.979C440.693 546.657 443.426 503.826 441.592 460.058L441.643 460.093ZM738.937 898.63C724.352 902.263 709.354 906.382 694.304 908.197C681.572 910.031 668.354 909.582 655.154 909.582C643.287 909.582 631.905 909.131 620.072 908.197C606.87 906.849 593.673 905.482 580.922 899.549C569.97 894.53 558.607 889.982 547.706 884.497C536.738 879.03 525.824 872.664 517.605 862.63C511.725 855.314 503.506 849.396 496.224 843.011C497.607 848.48 500.773 853.047 505.791 856.229C503.506 858.962 500.324 857.615 495.754 850.295C494.406 851.214 493.04 851.681 492.124 852.129C493.507 848.929 494.858 845.728 496.224 843.014C494.409 839.381 492.124 835.262 490.306 831.595C486.653 825.62 483.164 819.546 479.843 813.38C478.925 811.994 478.925 810.646 478.025 809.28C475.74 806.546 473.458 803.794 471.624 801.061C467.991 795.613 464.807 789.695 460.259 784.213C460.259 785.595 460.726 786.946 460.726 788.777C460.259 788.777 459.807 789.231 459.807 789.231L450.225 765.979C449.774 765.979 449.774 765.979 449.325 766.427L457.507 796.529C457.058 796.529 456.607 796.961 456.124 796.961C454.789 795.162 453.425 793.331 452.491 791.081C451.591 787.413 448.858 787.413 446.608 788.78C445.225 789.695 444.307 792.88 444.774 794.246C447.977 801.995 451.608 809.747 455.259 817.496C456.159 820.229 457.074 822.514 458.441 825.247C458.908 826.163 460.275 827.062 460.275 828.429C462.108 832.062 463.478 835.695 465.741 838.914C469.841 844.38 474.39 849.847 478.492 855.314C482.558 860.78 486.19 866.73 489.839 872.181C490.29 873.096 491.654 873.096 492.089 873.563C494.39 880.397 502.123 885.396 507.59 882.666C508.973 893.148 520.338 896.797 524.889 906.83C519.423 904.548 515.339 902.73 511.69 900.897C511.223 901.348 511.223 901.796 510.756 902.712C516.222 905.448 521.689 908.181 526.672 911.363C531.255 914.131 535.804 916.848 539.904 920.011C545.371 925.029 551.755 927.797 559.454 929.596C559.037 928.214 558.589 927.747 558.589 927.747C570.643 933.364 582.627 939.13 594.538 945.043C547.188 945.978 496.657 946.896 444.291 947.814C444.291 939.166 443.84 930.944 443.84 922.28C443.84 918.647 444.74 915.447 444.272 911.795C442.89 890.863 442.89 869.861 440.172 849.345C437.458 827.479 437.458 806.044 437.925 784.125C438.357 772.31 437.458 760.01 436.991 748.143C436.991 732.191 436.991 716.659 437.474 700.742C437.474 698.457 438.392 696.642 439.308 694.341H440.693C441.125 695.276 440.693 696.642 441.558 697.109C442.94 698.492 445.225 700.742 446.141 700.291C448.858 698.457 452.958 696.661 453.874 693.89C456.124 688.442 457.058 682.509 457.058 677.042C457.058 672.958 458.892 670.225 460.688 667.475C461.623 666.093 462.076 664.742 462.992 662.924C461.177 661.542 459.359 660.642 457.074 658.824C458.908 653.809 458.46 647.875 465.293 645.158C466.192 644.691 466.192 642.392 466.676 641.042C467.108 637.358 467.54 633.258 468.026 629.625C468.926 631.008 469.409 631.44 470.274 632.34C470.759 631.44 471.208 630.957 471.208 630.957C471.208 629.158 470.759 625.507 471.208 625.507C476.675 624.591 474.392 618.673 477.126 615.94C477.558 615.457 476.659 614.09 476.659 613.172C476.659 612.272 476.658 610.924 477.107 610.924C483.457 609.539 482.558 602.706 486.658 599.505C488.04 598.59 488.473 597.258 490.288 594.957C493.923 601.323 487.557 604.523 487.106 609.072C494.823 604.523 497.105 593.59 492.557 590.387C494.443 588.943 496.13 587.257 497.575 585.372C502.59 579.905 508.022 574.889 512.589 569.423C515.79 565.339 517.608 560.321 520.789 556.223C522.623 553.938 526.256 552.123 528.989 550.738C537.189 546.206 544.906 541.19 549.922 533.441C550.837 532.523 552.204 531.623 553.554 530.705C554.937 529.79 557.67 529.79 558.122 528.423C558.589 527.523 557.222 525.239 556.306 523.872C558.106 522.956 559.937 521.139 563.572 519.307C562.187 522.038 561.754 523.872 560.839 525.706L563.086 527.956C567.205 524.771 573.571 521.139 577.671 518.405C577.671 517.973 575.386 516.158 575.386 516.158C572.672 517.54 568.572 519.788 564.488 521.624C565.353 520.239 565.353 519.34 565.87 518.891C572.221 514.791 578.587 510.691 585.42 507.472C601.337 500.206 617.286 492.906 633.218 486.073C635.952 484.69 639.619 485.624 642.785 485.624C644.136 485.624 645.035 485.624 646.418 485.173C653.684 482.891 660.984 480.609 668.268 478.772C671.434 477.873 675.067 477.424 678.302 477.424C691.915 477.857 705.582 477.857 719.233 478.772C725.148 479.223 730.614 480.587 736.081 482.405C742.898 484.706 750.18 487.89 756.565 491.053C764.298 495.207 771.579 499.739 778.88 504.757C792.079 513.406 804.363 522.988 817.563 530.74C830.311 538.491 840.329 548.974 848.526 560.841C858.563 574.959 869.928 587.726 874.477 605.041L881.294 635.143C882.677 640.609 885.858 646.076 884.494 652.442C882.193 663.858 880.376 675.71 878.561 687.11C877.661 691.693 876.746 696.279 877.21 700.777C878.075 714.961 872.627 727.245 867.176 740.012C865.342 744.112 862.612 748.228 860.343 752.779C860.794 753.228 863.527 754.613 863.976 754.613L868.076 746.413C868.543 746.413 868.543 746.413 868.994 746.88C866.709 753.247 864.894 760.096 862.593 766.481C857.161 780.614 851.695 795.197 844.861 808.863C841.228 816.615 834.825 822.997 830.295 830.316C825.763 836.682 822.111 843.516 817.563 849.449C813.463 854.467 809.379 859.483 803.896 863.116C791.612 872.231 778.864 881.347 765.664 888.65C757.48 893.668 747.914 896.399 738.814 898.684L738.937 898.63ZM496.275 874.412L495.826 874.879C494.874 874.428 493.507 873.98 492.607 873.064L481.674 856.627C480.774 855.279 480.291 853.912 480.775 852.095C485.793 859.846 490.811 867.146 496.256 874.409L496.275 874.412ZM779.47 936.862C799.935 928.214 816.786 915.93 832.233 901.78C834.534 899.495 836.797 897.229 839.533 895.379C858.667 883.546 872.747 867.128 885.514 848.894C900.08 827.927 909.647 804.227 921.496 781.896C922.398 780.059 923.297 778.26 924.213 776.877C923.297 828.845 929.231 879.895 936.046 931.414C884.615 933.229 832.249 935.044 779.451 936.881L779.47 936.862ZM1241.07 923.195C1240.62 924.114 1239.69 925.029 1239.25 925.964C1238.79 925.029 1238.79 923.663 1238.34 921.813C1235.6 929.129 1229.69 925.48 1225.59 925.48C1201.02 925.948 1175.97 925.948 1151.37 925.948C1127.71 925.948 1103.59 925.948 1079.93 926.361C1072.18 926.361 1063.98 928.176 1056.22 928.646C1037.58 929.546 1018.91 930.029 1000.24 930.461C998.861 930.461 997.511 928.214 995.226 926.377C994.777 927.295 993.843 928.662 992.495 930.48C992.009 929.58 991.11 928.681 990.194 927.314C989.743 928.697 989.276 930.047 988.809 930.944H987.496C986.577 924.581 984.762 918.666 984.762 912.262C984.762 898.596 986.145 884.929 986.577 871.228C987.045 864.862 986.577 858.946 986.577 852.997C988.411 854.379 989.781 855.295 991.596 856.627C992.495 854.846 993.411 853.477 994.329 852.129C994.329 852.129 993.411 851.646 992.495 850.747C993.36 850.279 994.294 849.361 994.294 848.913C994.743 847.527 995.677 846.179 995.677 845.28C995.677 842.077 994.743 839.346 994.294 836.632C994.743 836.632 995.194 836.631 995.677 836.146L998.394 849.812H999.777C997.943 846.647 1003.86 843.895 998.861 840.262C998.41 839.795 999.31 837.061 999.31 835.697C997.927 832.98 997.062 830.247 995.68 826.595C996.128 826.147 997.495 825.68 998.861 825.212C997.046 824.313 995.677 823.413 994.31 822.962C998.861 818.846 998.861 816.561 994.761 812.013C995.696 811.58 996.595 811.581 996.595 811.148C996.595 807.029 996.595 802.929 995.696 798.864C994.777 794.262 997.078 788.83 990.229 786.062C990.677 787.448 991.145 788.347 992.044 789.695C992.044 789.695 990.661 790.162 989.311 791.081C983.396 785.595 987.063 778.279 985.681 770.095C988.862 771.013 991.145 771.929 993.411 772.863C992.495 769.646 990.229 765.995 988.862 761.895H987.01V731.796C987.01 732.264 990.194 732.263 992.028 732.731C992.028 732.263 992.461 731.815 992.461 731.348C991.075 729.533 989.257 727.715 987.442 725.43L988.361 724.515C984.728 719.982 986.545 713.616 986.545 712.231V680.314C991.11 684.879 984.295 690.797 991.11 693.53V688.982H990.643C990.194 682.148 990.194 675.315 989.743 668.463H988.844C988.377 669.397 988.377 669.848 987.909 670.764H987.01L989.743 561.813C994.294 567.728 999.294 573.229 1002.48 579.112C1012.96 598.277 1026.61 614.696 1039.36 632.014C1050.29 647.063 1060.29 663.463 1070.32 678.966C1082.61 697.649 1094.44 716.331 1106.74 735.016C1115.84 749.165 1125.42 763.299 1134.94 776.984C1143.59 789.266 1152.72 801.133 1161.82 813.001C1169.54 823.485 1177.74 833.968 1185.47 844.452C1194.59 857.219 1203.69 869.971 1212.81 882.286C1217.33 888.653 1222.35 895.035 1227.33 901.42C1230.1 905.05 1234.19 907.821 1236.92 910.068C1236.49 910.068 1236.02 910.068 1235.12 909.62C1236.5 911.435 1237.37 912.801 1238.3 913.72C1243.32 916.453 1243.77 919.186 1241.04 923.302L1241.07 923.195ZM1264.29 809.261V806.06C1264.29 806.96 1264.74 808.311 1264.29 809.245V809.261ZM1279.77 608.242C1279.3 608.242 1276.59 605.474 1276.14 605.025C1275.67 606.408 1276.14 607.759 1275.22 609.59C1274.75 608.242 1271.59 608.693 1271.59 607.342C1271.12 613.708 1274.3 620.091 1273.83 626.475C1275.22 625.557 1280.67 625.093 1282.03 623.742C1282.5 624.191 1283.42 624.642 1283.87 624.642C1274.75 631.491 1277.04 638.308 1281.14 646.092C1282.03 647.891 1284.77 651.542 1282.03 655.194C1281.14 656.11 1282.5 658.824 1282.95 661.125H1284.29V661.993L1280.19 663.375C1279.29 661.993 1273.83 659.291 1273.83 656.974V680.258C1278.39 681.644 1278.39 688.01 1280.2 691.21C1281.15 689.825 1281.59 688.909 1282.05 687.578L1282.52 687.991C1282.05 690.725 1281.6 693.458 1280.69 696.21C1279.79 700.294 1278.87 703.943 1278.44 708.043C1278.44 708.491 1279.3 709.425 1279.3 709.858C1274.32 721.277 1277.05 734.009 1275.24 745.842C1273.85 754.49 1275.24 763.659 1274.32 772.759C1273.39 780.51 1271.55 788.71 1269.75 796.462C1269.29 797.844 1268.37 798.277 1266.12 799.193C1267.02 793.726 1266.57 790.077 1265.65 785.059C1265.17 785.059 1259.25 781.877 1258.79 781.877C1258.79 788.278 1262.42 796.926 1263.8 804.192C1262.42 803.744 1256.97 800.562 1256.54 800.562C1255.6 806.026 1255.6 813.326 1255.15 819.244C1254.69 823.808 1250.6 827.892 1250.13 832.911C1250.13 835.679 1253.32 837.475 1252.87 842.045H1256.5C1256.5 832.943 1260.62 824.745 1260.62 815.16H1261.97C1262.43 816.078 1263.8 816.994 1263.35 817.445C1262.43 822.463 1260.58 827.927 1261.07 832.945C1261.07 835.679 1263.32 838.412 1262.45 841.594C1261.52 844.362 1261.07 847.079 1260.6 851.176C1260.13 848.894 1259.69 847.995 1259.69 846.628C1259.23 846.628 1255.13 846.161 1254.67 846.161C1254.22 848.894 1257.87 851.627 1257.4 853.912C1256.95 854.361 1256.5 854.361 1255.59 854.828L1240.57 832.927C1228.7 815.63 1216.87 798.277 1205.03 780.51C1201.97 776.161 1199.22 771.593 1196.82 766.844C1182.72 742.66 1167.24 719.408 1149.94 697.075C1136.76 680.224 1126.24 661.958 1113.95 644.223C1102.6 627.359 1091.22 610.94 1079.84 594.057C1075.74 588.607 1070.74 583.591 1067.09 577.657C1055.27 558.973 1044.78 539.823 1032.98 521.139C1022.94 505.622 1012.04 490.57 1001.56 475.537C997.927 470.519 994.294 465.036 990.627 459.57C990.176 458.705 989.727 457.789 989.727 456.42C988.809 446.389 987.893 436.355 987.442 426.788C987.442 417.67 988.361 408.555 988.361 398.969V390.769C988.361 388.487 988.793 386.669 988.793 384.368C989.225 383.936 989.693 383.021 990.141 382.569C976.941 382.569 963.275 382.086 950.075 382.569C941.427 383.002 936.876 379.353 930.961 372.968C913.661 353.368 900.91 331.034 885.896 310.067C871.778 290 857.212 270.383 842.646 250.783C830.794 234.831 818.945 219.331 807.131 203.382C793.913 185.148 781.181 166.915 767.514 148.681C751.114 126.814 734.266 104.913 717.434 83.044C709.647 73.0129 700.999 63.4463 692.348 52.9455C698.282 53.8797 703.767 54.7792 709.218 55.2464L731.081 56.629C747.465 57.9637 763.847 58.8792 780.212 61.1267C793.878 62.9792 807.545 65.7125 821.663 67.9787C851.729 72.9969 881.31 81.2129 909.994 90.7795C926.842 96.2462 943.207 103.547 959.642 110.38C996.491 125.429 1031.56 143.666 1066.16 162.796C1077.05 168.73 1083.45 178.296 1091.62 186.964C1103.47 199.282 1115.32 211.582 1126.69 224.333C1139.87 239.382 1152.15 254.883 1164.92 270.383C1176.28 284.05 1188.1 297.716 1199.52 311.418C1203.15 315.518 1205.92 320.533 1209.07 325.084C1216.33 336.034 1224.55 346.534 1230.92 358.37C1235.45 367.053 1238.18 377.087 1241.37 386.653C1245.9 400.787 1250.47 414.454 1255.03 428.587C1258.2 439.07 1260.91 450.038 1263.2 460.939C1265.03 468.253 1264.58 475.988 1266.83 483.254C1269.6 492.871 1266.83 503.321 1269.6 512.923C1270.03 513.838 1270.46 515.205 1270.95 516.123C1272.76 517.922 1274.13 519.753 1271.4 522.489C1270.97 522.938 1270.97 524.737 1271.4 526.119C1272.33 525.223 1272.78 524.304 1273.7 522.938C1273.7 523.856 1274.13 524.323 1274.13 524.753C1274.13 526.555 1273.66 528.388 1274.13 530.203C1274.13 531.103 1275.03 532.454 1275.48 533.388C1276.4 532.454 1277.29 532.002 1279.11 530.62C1283.21 546.136 1283.68 561.637 1283.68 577.588C1283.68 592.637 1286.4 607.689 1280.05 622.271C1281.4 617.253 1278.21 612.67 1279.58 608.122L1279.77 608.242Z"
    fill="#DD3A0A" />
  <path
    d="M988.878 785.529C989.31 785.529 989.777 785.994 989.777 785.994L989.31 785.476C989.31 785.044 989.31 785.044 988.862 785.476L988.878 785.529ZM1060.79 1235.94C1055.77 1239.57 1050.76 1242.77 1044.39 1244.14C1043.91 1243.69 1043.91 1243.22 1043.46 1242.75C1048.48 1239.57 1053.92 1236.39 1058.94 1233.19C1059.41 1234.05 1060.33 1234.99 1060.77 1235.9L1060.79 1235.94ZM207.202 618.204C212.22 611.857 217.235 605.472 222.667 599.09C223.1 599.538 226.733 600.472 227.2 600.905C222.182 607.306 215.348 615.957 210.349 622.79C209.415 621.872 208.048 618.69 207.148 618.223L207.202 618.204ZM77.8869 841.627C74.2567 833.878 70.6211 825.659 66.9883 817.926C67.4394 817.459 70.6211 816.092 71.0722 816.092C76.0905 823.358 78.338 832.009 82.0055 839.796C82.0055 839.796 78.3727 841.611 77.9055 841.611L77.8869 841.627ZM194 622.79C191.269 626.906 188.536 631.473 185.802 635.589C185.351 635.106 180.336 637.391 179.885 636.94C182.618 632.84 189.435 625.524 192.168 621.44C192.636 621.891 193.084 622.358 194.002 622.822L194 622.79ZM1012.09 1254.65C1012.53 1254.65 1012.53 1254.2 1012.99 1254.2C1016.18 1254.65 1019.81 1255.1 1023.46 1255.1C1017.51 1259.2 1013.86 1258.74 1012.04 1254.65H1012.09ZM194.867 641.942C195.35 640.559 196.25 639.209 197.168 637.842C198.068 637.842 199.415 637.375 199.415 637.375C201.268 634.193 201.268 631.908 203.083 629.175C202.635 628.727 202.167 628.727 201.7 628.259C198.983 630.128 196.25 632.41 193.516 634.225C194.435 635.125 194.435 635.611 194.435 636.51C190.802 636.043 189.416 637.893 187.601 642.876C187.15 644.259 184.868 644.71 182.583 646.509C182.135 647.443 181.684 649.726 180.768 651.992L181.235 652.478C180.317 653.393 178.95 653.86 178.95 653.86C176.217 656.578 173.035 658.879 170.302 661.593C169.851 662.979 169.402 664.326 169.402 665.693C172.603 662.511 178.051 656.578 182.151 652.926L182.618 653.393C184.433 650.66 185.802 647.927 187.636 645.193C188.068 645.644 188.068 646.093 188.536 646.579C187.15 650.209 185.802 654.293 184.436 657.944C183.483 658.393 182.116 659.327 182.116 658.86C180.301 660.245 178.934 662.044 177.098 663.411L168.917 668.878C164.368 672.978 159.817 676.61 154.802 680.729C151.617 685.745 148.435 690.293 144.765 696.227C150.25 694.844 151.617 697.145 151.169 701.712C157.535 702.612 158.002 697.612 159.817 693.961C160.268 693.026 160.735 691.193 161.632 690.744C165.735 687.111 170.283 683.927 174.834 680.278C175.75 679.36 175.75 677.51 175.75 676.159C175.75 675.711 173.449 675.711 172.082 675.244C176.182 670.677 182.119 662.96 186.2 657.944C188.482 656.559 190.748 654.725 190.748 653.359C190.3 648.343 193.482 646.992 197.149 645.159C195.316 643.776 194.848 642.444 194.848 641.993L194.867 641.942Z"
    fill="#DD3735" />
  <path
    d="M204.001 636.927C202.186 640.109 200.368 642.842 198.551 646.042L195.817 644.66C194.002 655.123 187.617 664.241 181.251 666.059C183.066 666.975 184.884 667.893 186.269 667.442C187.617 666.975 188.517 664.674 189.435 663.326L201.716 645.541L205.835 638.691L204.02 636.876L204.001 636.927ZM52.4222 837.046C54.7071 837.046 56.9893 837.495 59.6879 837.495C59.6879 835.68 61.9888 836.112 61.9888 834.313H63.3742C63.3742 836.595 63.8226 838.413 63.8226 840.714H54.2747C53.8075 840.247 51.9898 837.495 52.4409 837.046H52.4222ZM48.7893 816.079C47.4067 814.694 45.1565 813.346 45.1565 811.979C44.6894 810.18 46.056 807.914 47.4067 805.629C48.3409 808.814 48.7893 811.547 49.6889 814.747C49.2218 815.18 48.7733 815.647 48.7733 816.095L48.7893 816.079ZM60.1737 786.894C61.9888 791.496 63.8039 796.514 65.6404 801.081C65.1893 801.081 62.4559 802.464 62.0075 802.896C60.1897 798.331 57.9075 793.313 56.0898 788.762C56.5409 788.314 59.2742 786.928 60.1897 786.928L60.1737 786.894ZM1073.58 1222.74C1075.83 1221.84 1078.56 1221.36 1082.22 1220.49C1078.11 1223.66 1074.93 1225.94 1072.19 1228.67C1071.73 1228.22 1071.28 1227.76 1070.81 1227.76C1071.73 1225.94 1072.64 1224.57 1073.58 1222.74ZM514.006 259.483C516.724 257.652 519.024 256.285 521.739 254.468L522.639 255.367C519.871 259 517.62 262.633 514.423 267.219C513.972 264.053 513.971 262.2 513.504 259.953C513.056 259.953 513.504 259.953 513.972 259.502L514.006 259.483ZM647.386 490.139C651.486 488.305 655.586 486.509 660.586 484.205C660.137 486.939 660.137 488.772 660.137 490.606C658.752 490.139 656.934 489.672 655.57 489.672C652.837 490.139 647.819 493.791 645.534 494.239C645.104 494.239 647.37 490.609 647.37 490.139H647.386ZM988.878 876.714C989.777 881.263 998.428 883.548 989.777 888.096C991.163 889.049 992.495 889.481 993.861 890.416C993.861 890.883 993.41 891.798 992.962 892.249C992.043 892.682 990.228 893.597 989.329 893.114C988.862 893.114 987.943 891.315 987.943 890.397C987.943 886.297 988.411 882.197 988.862 876.73L988.878 876.714Z"
    fill="#DD3735" />
</svg>