<svg width="1349" height="1348" viewBox="0 0 1349 1348" fill="none" xmlns="http://www.w3.org/2000/svg">
<g clip-path="url(#clip0)">
<path d="M56.5769 57.6068H1292.24V1290.39H56.5769V57.6068Z" fill="#001D26"/>
<path d="M0.410156 0V1348H1348.41V0H0.410156ZM56.5768 57.6068H1292.24V1290.39H56.5768V57.6068ZM326.177 315.685C326.177 311.653 334.04 308.773 338.534 308.773C374.48 307.044 427.839 305.892 483.444 305.892C639.025 305.892 699.685 393.455 699.685 505.788C699.685 652.109 596.339 714.901 469.402 714.901C448.058 714.901 440.757 713.749 425.592 713.749V934.959C425.592 939.568 423.907 941.872 418.852 941.872H332.917C328.424 941.872 326.177 940.144 326.177 934.959V315.685ZM426.154 621.578C439.072 622.73 449.182 622.73 471.649 622.73C537.364 622.73 599.147 599.111 599.147 507.516C599.147 434.356 554.775 397.487 480.074 397.487C457.607 397.487 436.264 398.639 426.154 399.215V621.578ZM909.187 553.026C864.815 553.026 849.65 576.068 849.65 595.079C849.65 615.817 859.76 630.219 919.297 661.903C1007.48 705.684 1035 747.737 1035 809.376C1035 901.547 966.477 951.089 873.802 951.089C824.937 951.089 782.812 940.72 758.66 926.318C754.729 924.59 754.167 921.709 754.167 917.101V832.419C754.167 826.658 756.975 824.93 760.907 827.81C796.292 851.429 836.732 861.798 873.802 861.798C918.174 861.798 936.708 842.788 936.708 816.865C936.708 796.126 923.79 777.692 867.062 747.737C787.305 708.564 754.167 668.815 754.167 602.567C754.167 528.255 810.895 466.615 909.187 466.615C957.49 466.615 991.19 474.104 1009.73 482.745C1014.22 485.626 1015.34 490.234 1015.34 494.267V573.188C1015.34 577.797 1012.53 580.677 1006.92 578.949C982.203 562.819 945.695 553.026 909.187 553.026V553.026Z" fill="#00C8FF"/>
</g>
<defs>
<clipPath id="clip0">
<rect width="1348" height="1348" fill="white" transform="translate(0.410156)"/>
</clipPath>
</defs>
</svg>
