<svg width="1349" height="1348" viewBox="0 0 1349 1348" fill="none" xmlns="http://www.w3.org/2000/svg">
<g clip-path="url(#clip0)">
<path d="M1128.94 518.171C1126.84 471.878 1133.15 430.846 1112.11 396.126C1061.61 309.854 935.357 259.353 682.852 259.353V266.717H677.591H682.852V259.353C430.347 259.353 297.781 309.854 247.28 397.178C227.29 432.95 229.395 472.93 226.238 519.223C224.134 556.046 207.3 594.974 214.665 637.058C223.082 691.768 226.238 746.477 234.655 796.979C240.968 838.011 297.781 872.73 303.042 911.658C317.771 1018.97 429.295 1068.42 681.8 1068.42V1076.84H676.539H682.852V1068.42C935.357 1068.42 1042.67 1018.97 1056.35 911.658C1061.61 871.678 1114.22 838.011 1120.53 796.979C1128.94 746.477 1132.1 691.768 1140.52 637.058C1147.88 594.974 1131.05 554.994 1128.94 518.171V518.171Z" fill="#EFCCA3"/>
<path d="M678.647 556.058C723.887 557.11 755.45 585.517 784.909 611.819C819.629 642.33 878.547 663.372 902.745 689.675C926.944 715.978 958.507 742.28 970.08 783.312C981.653 824.344 984.809 876.95 984.809 890.627C984.809 904.305 992.174 901.148 1013.22 890.627C1062.67 866.429 1117.37 801.198 1117.37 801.198C1111.06 842.23 1057.4 879.054 1052.14 917.982C1039.52 1025.3 935.36 1076.85 677.595 1076.85H676.542H682.855" fill="#CCAC8D"/>
<path d="M844.881 473.984C854.35 506.599 888.017 617.07 822.787 580.247C822.787 580.247 850.142 596.028 866.975 655.998C884.861 715.968 927.997 723.333 927.997 723.333C927.997 723.333 998.489 737.011 1051.09 691.77C1095.28 653.894 1102.65 586.559 1083.71 535.006C1064.77 484.505 1031.1 468.724 981.655 458.203C932.206 446.629 833.308 437.16 844.881 473.984V473.984Z" fill="#CCAC8D"/>
<path d="M970.08 686.515C1021.21 686.515 1062.67 645.063 1062.67 593.93C1062.67 542.797 1021.21 501.345 970.08 501.345C918.947 501.345 877.495 542.797 877.495 593.93C877.495 645.063 918.947 686.515 970.08 686.515Z" fill="black"/>
<path d="M945.88 577.098C959.245 577.098 970.079 566.264 970.079 552.9C970.079 539.535 959.245 528.701 945.88 528.701C932.516 528.701 921.682 539.535 921.682 552.9C921.682 566.264 932.516 577.098 945.88 577.098Z" fill="white"/>
<path d="M829.095 589.709C829.095 589.709 912.211 646.523 957.452 702.284C1002.69 758.046 1001.64 768.567 1001.64 768.567L969.025 783.296C969.025 783.296 922.732 695.972 865.919 663.356C808.053 630.741 801.74 603.386 801.74 603.386L829.095 589.709Z" fill="#EFCCA3"/>
<path d="M681.804 556.038C636.563 557.09 602.896 585.497 572.385 611.8C537.665 642.311 476.643 663.353 452.445 689.655C428.246 715.958 395.631 742.261 384.058 783.293C372.485 824.325 368.276 876.93 368.276 890.608C368.276 904.285 370.38 905.337 339.869 890.608C290.42 867.461 235.711 801.179 235.711 801.179C242.024 842.211 295.681 879.034 300.941 917.962C315.671 1025.28 419.829 1076.83 677.595 1076.83H682.856" fill="#CCAC8D"/>
<path d="M925.889 733.858C875.388 671.784 794.376 613.918 681.8 613.918H680.748C568.173 613.918 487.161 671.784 436.66 733.858C384.054 798.036 388.263 823.287 388.263 884.309C388.263 1105.25 466.119 1042.13 517.672 1069.48C570.277 1095.78 624.987 1087.37 680.748 1087.37H681.8C738.614 1087.37 792.271 1094.73 844.877 1068.43C896.43 1042.12 974.286 1107.36 974.286 886.413C975.338 825.391 978.494 798.036 925.889 733.858V733.858Z" fill="#56332B"/>
<path d="M676.541 668.631C676.541 668.631 669.176 770.685 654.446 790.675L681.801 784.362L676.541 668.631Z" fill="#442823"/>
<path d="M683.906 668.631C683.906 668.631 691.271 770.685 706 790.675L678.646 784.362L683.906 668.631Z" fill="#442823"/>
<path d="M595.529 644.426C585.008 620.227 622.884 581.299 682.854 580.247C742.824 580.247 780.7 619.175 770.179 644.426C759.658 669.676 721.782 677.041 682.854 678.093C644.978 677.041 606.05 669.676 595.529 644.426V644.426Z" fill="#56332B"/>
<path d="M682.856 668.629C682.856 664.421 718.627 663.369 737.565 650.743C737.565 650.743 698.637 663.369 690.22 658.108C681.803 653.9 679.699 641.274 679.699 641.274C679.699 641.274 676.543 653.9 670.23 658.108C662.866 662.317 618.677 650.743 618.677 650.743L677.595 668.629C677.595 671.785 676.543 682.307 676.543 689.671L680.751 786.465C687.064 795.934 684.96 715.974 684.96 689.671L682.856 668.629Z" fill="black"/>
<path d="M684.96 809.604C702.846 809.604 734.409 822.23 762.816 842.22C735.461 811.709 702.846 790.667 684.96 790.667C666.022 790.667 626.042 813.813 597.635 847.48C627.094 824.334 664.97 809.604 684.96 809.604Z" fill="#7F4A41" stroke="#4D4D4D" stroke-width="2.07749" stroke-miterlimit="10"/>
<path d="M677.594 995.829C637.614 995.829 598.686 983.203 562.914 973.734C555.55 971.63 548.185 976.891 540.82 974.786C474.538 953.744 420.88 917.973 388.265 872.732V883.253C388.265 1104.2 466.121 1042.12 517.674 1068.42C570.279 1094.73 624.989 1086.31 680.75 1086.31H681.802C738.616 1086.31 792.274 1093.67 844.879 1067.37C896.432 1041.07 974.288 1105.25 974.288 884.305C974.288 875.888 974.288 867.472 975.34 860.107C944.829 909.556 889.067 948.484 819.628 971.63C813.316 973.734 798.586 968.474 792.274 969.526C754.398 982.151 720.73 995.829 677.594 995.829V995.829Z" fill="#442823"/>
<path d="M577.646 876.933C577.646 876.933 551.343 955.841 569.229 990.56L545.03 980.039C545.03 980.039 562.916 900.079 577.646 876.933V876.933ZM785.963 876.933C785.963 876.933 812.265 955.841 794.379 990.56L818.578 980.039C818.578 980.039 799.64 900.079 785.963 876.933Z" fill="#442823"/>
<path d="M510.31 473.984C500.841 506.599 467.173 617.07 532.404 580.247C532.404 580.247 505.049 596.028 488.215 655.998C471.382 715.968 427.193 723.333 427.193 723.333C427.193 723.333 356.702 737.011 304.097 691.77C259.909 653.894 252.544 586.559 271.482 535.006C290.42 483.453 324.087 468.724 373.536 458.203C422.985 446.629 520.831 437.16 510.31 473.984V473.984Z" fill="#CCAC8D"/>
<path d="M681.8 790.67C710.207 790.67 798.584 851.692 799.636 926.392V922.183C799.636 844.328 728.093 782.253 681.8 782.253C635.507 782.253 563.964 845.38 563.964 922.183V926.392C565.016 851.692 653.393 790.67 681.8 790.67Z" fill="black"/>
<path d="M704.766 644.992C709.267 643.831 711.152 636.048 708.975 627.609C706.799 619.169 701.386 613.268 696.885 614.429C692.384 615.59 690.499 623.372 692.675 631.812C694.852 640.252 700.265 646.152 704.766 644.992Z" fill="#331712"/>
<path d="M650.691 644.831C655.13 646.208 660.823 640.576 663.406 632.252C665.988 623.927 664.483 616.062 660.043 614.685C655.603 613.307 649.91 618.939 647.328 627.264C644.745 635.588 646.251 643.453 650.691 644.831Z" fill="#331712"/>
<path d="M390.368 686.515C441.501 686.515 482.953 645.063 482.953 593.93C482.953 542.797 441.501 501.345 390.368 501.345C339.235 501.345 297.783 542.797 297.783 593.93C297.783 645.063 339.235 686.515 390.368 686.515Z" fill="black"/>
<path d="M414.567 577.098C427.931 577.098 438.765 566.264 438.765 552.9C438.765 539.535 427.931 528.701 414.567 528.701C401.202 528.701 390.368 539.535 390.368 552.9C390.368 566.264 401.202 577.098 414.567 577.098Z" fill="white"/>
<path d="M709.159 594.98C709.159 593.928 684.961 605.501 678.648 606.553C672.335 605.501 648.137 593.928 648.137 594.98H709.159Z" fill="#7F4A41" stroke="#4D4D4D" stroke-width="2.07749" stroke-miterlimit="10"/>
<path d="M525.038 589.709C525.038 589.709 441.922 646.523 396.681 702.284C351.441 758.046 352.493 768.567 352.493 768.567L385.108 783.296C385.108 783.296 431.401 695.972 488.214 663.356C545.028 630.741 552.393 603.386 552.393 603.386L525.038 589.709Z" fill="#EFCCA3"/>
<path d="M343.026 421.379C343.026 421.379 314.619 499.235 251.492 531.85C251.492 531.85 350.39 520.277 343.026 421.379ZM1006.9 421.379C1006.9 421.379 1035.31 499.235 1098.44 531.85C1098.44 531.85 999.539 520.277 1006.9 421.379ZM826.994 566.569C826.994 566.569 764.92 501.339 681.804 499.235C680.751 499.235 683.908 499.235 682.856 499.235C681.804 499.235 683.908 499.235 683.908 499.235C599.739 501.339 538.717 566.569 538.717 566.569C611.312 516.068 673.387 517.12 683.908 517.12C682.856 517.12 754.399 516.068 826.994 566.569V566.569ZM754.399 429.796C754.399 429.796 722.836 385.607 680.751 384.555H682.856C651.292 385.607 610.26 429.796 610.26 429.796C646.032 395.076 682.856 396.128 682.856 396.128C682.856 396.128 717.575 395.076 754.399 429.796ZM390.37 752.792C390.37 752.792 340.921 776.99 305.15 762.261H304.098C272.534 744.375 256.753 690.718 256.753 690.718C256.753 690.718 288.316 785.407 390.37 752.792V752.792ZM966.924 752.792C966.924 752.792 1016.37 776.99 1052.14 762.261C1094.23 744.375 1100.54 690.718 1100.54 690.718C1100.54 690.718 1068.98 785.407 966.924 752.792V752.792ZM447.184 416.118C474.539 410.858 519.779 409.806 555.551 421.379C600.791 437.16 563.968 495.026 573.437 498.183C582.906 501.339 595.531 458.203 679.699 462.411C764.92 466.619 774.389 504.495 785.962 498.183C797.535 491.87 774.389 392.972 901.694 416.118C901.694 416.118 768.076 380.347 774.389 477.14C774.389 477.14 697.585 418.223 590.27 470.828C591.322 470.828 618.677 380.347 447.184 416.118V416.118ZM913.267 416.118C915.371 416.118 916.423 417.17 917.475 417.17C918.527 417.17 916.423 416.118 913.267 416.118Z" fill="#CCAC8D"/>
<path d="M410.361 286.709C410.361 286.709 296.733 429.795 279.9 484.505C263.066 540.266 250.441 768.573 235.711 801.189L183.106 576.038L279.9 341.418L410.361 286.709ZM944.83 286.709C944.83 286.709 1058.46 429.795 1075.29 484.505C1092.13 540.266 1104.75 768.573 1119.48 801.189L1172.09 576.038L1075.29 341.418L944.83 286.709Z" fill="#CCAC8D"/>
<path d="M939.568 286.698C939.568 286.698 1061.61 388.752 1097.38 506.588C1133.16 624.424 1118.43 767.51 1145.78 785.396C1184.71 810.647 1228.9 660.196 1243.63 644.414C1266.77 619.164 1343.58 554.985 1348.84 543.412C1354.1 531.839 1193.13 356.137 1122.63 321.418C1037.41 281.438 932.203 278.281 939.568 286.698V286.698Z" fill="#56332B"/>
<path d="M1043.73 349.835C1043.73 349.835 1187.87 533.953 1185.76 763.312L1243.63 645.477C1242.58 645.477 1192.07 495.025 1043.73 349.835V349.835Z" fill="#442823"/>
<path d="M410.359 286.698C410.359 286.698 288.315 388.752 252.543 506.588C216.771 624.424 231.501 767.51 204.146 785.396C165.218 810.647 121.03 660.196 106.3 644.414C83.154 619.164 6.35029 554.985 1.08976 543.412C-4.17077 531.839 156.801 356.137 227.292 321.418C312.513 281.438 417.724 278.281 410.359 286.698V286.698Z" fill="#56332B"/>
<path d="M306.199 349.835C306.199 349.835 162.061 533.953 164.165 763.312L107.351 645.477C107.351 645.477 157.852 495.025 306.199 349.835V349.835Z" fill="#442823"/>
<path d="M228.342 767.511C228.342 767.511 238.863 824.325 255.697 842.21C272.531 860.096 260.958 828.533 260.958 828.533C260.958 828.533 243.072 819.064 246.228 746.469C249.384 673.873 228.342 767.511 228.342 767.511V767.511ZM1125.79 767.511C1125.79 767.511 1115.27 824.325 1098.43 842.21C1081.6 860.096 1093.17 828.533 1093.17 828.533C1093.17 828.533 1111.06 819.064 1107.9 746.469C1104.75 673.873 1125.79 767.511 1125.79 767.511V767.511Z" fill="#CCAC8D"/>
<path d="M572.386 732.795C577.034 732.795 580.803 729.026 580.803 724.378C580.803 719.729 577.034 715.961 572.386 715.961C567.737 715.961 563.969 719.729 563.969 724.378C563.969 729.026 567.737 732.795 572.386 732.795Z" fill="#442823"/>
<path d="M523.988 783.291C528.636 783.291 532.404 779.523 532.404 774.874C532.404 770.226 528.636 766.458 523.988 766.458C519.339 766.458 515.571 770.226 515.571 774.874C515.571 779.523 519.339 783.291 523.988 783.291Z" fill="#442823"/>
<path d="M508.206 732.795C512.855 732.795 516.623 729.026 516.623 724.378C516.623 719.729 512.855 715.961 508.206 715.961C503.558 715.961 499.789 719.729 499.789 724.378C499.789 729.026 503.558 732.795 508.206 732.795Z" fill="#442823"/>
<path d="M777.545 732.795C782.193 732.795 785.962 729.026 785.962 724.378C785.962 719.729 782.193 715.961 777.545 715.961C772.896 715.961 769.128 719.729 769.128 724.378C769.128 729.026 772.896 732.795 777.545 732.795Z" fill="#442823"/>
<path d="M825.943 783.291C830.592 783.291 834.36 779.523 834.36 774.874C834.36 770.226 830.592 766.458 825.943 766.458C821.295 766.458 817.526 770.226 817.526 774.874C817.526 779.523 821.295 783.291 825.943 783.291Z" fill="#442823"/>
<path d="M841.725 732.795C846.373 732.795 850.142 729.026 850.142 724.378C850.142 719.729 846.373 715.961 841.725 715.961C837.076 715.961 833.308 719.729 833.308 724.378C833.308 729.026 837.076 732.795 841.725 732.795Z" fill="#442823"/>
</g>
<defs>
<clipPath id="clip0">
<rect width="1348" height="1348" fill="white" transform="translate(0.963867)"/>
</clipPath>
</defs>
</svg>
