<svg width="1752" height="1348" viewBox="0 0 1752 1348" fill="none" xmlns="http://www.w3.org/2000/svg">
<g clip-path="url(#clip0)">
<path d="M1507.68 774.398C1446.44 774.749 1393.41 789.844 1348.93 812.311C1332.51 778.962 1316.09 749.825 1313.35 728.061C1310.27 702.786 1306.51 687.34 1310.27 657.15C1314.04 626.961 1331.14 584.134 1331.14 580.623C1330.8 577.464 1327.38 562.018 1292.14 561.667C1256.9 561.316 1226.45 568.688 1223.03 578.166C1219.61 587.644 1212.76 609.409 1208.32 631.875C1202.16 664.873 1137.84 781.77 1101.23 843.203C1089.26 819.332 1078.99 798.269 1076.94 781.419C1073.86 756.144 1070.1 740.698 1073.86 710.509C1077.62 680.319 1094.73 637.492 1094.73 633.982C1094.39 630.822 1090.97 615.377 1055.73 615.025C1020.49 614.674 990.037 622.046 986.616 631.524C983.194 641.003 979.431 663.469 971.904 685.234C964.719 706.998 879.186 902.178 856.948 953.079C845.657 979.056 835.735 999.767 828.551 1013.81C821.366 1027.85 828.209 1014.86 827.524 1016.27C821.366 1028.2 817.945 1034.87 817.945 1034.87V1035.22C813.155 1044 808.023 1052.42 805.628 1052.42C803.917 1052.42 800.496 1028.9 806.312 996.608C818.971 928.857 849.763 823.193 849.421 819.332C849.421 817.576 855.237 798.971 829.577 789.493C804.601 780.015 795.706 795.812 793.653 795.812C791.6 795.812 789.89 801.429 789.89 801.429C789.89 801.429 817.602 682.425 736.859 682.425C686.224 682.425 616.429 738.943 581.874 790.546C559.977 802.833 513.447 828.81 464.18 856.542C445.363 867.073 425.861 878.307 407.386 888.487L403.623 884.274C305.773 777.207 124.785 701.382 132.312 557.455C135.049 505.149 152.84 367.19 479.918 200.094C747.808 63.1881 962.324 100.75 999.617 184.297C1052.65 303.652 885.002 525.51 606.507 557.455C500.446 569.741 444.679 527.616 430.651 511.819C415.94 495.32 413.887 494.618 408.413 497.778C399.517 502.692 404.991 517.436 408.413 526.212C416.624 548.328 450.837 587.644 508.999 607.303C559.977 624.504 684.513 633.982 835.051 574.305C1003.72 507.256 1135.44 321.204 1096.78 165.692C1057.44 7.37246 801.522 -44.5817 559.635 43.5297C415.597 96.186 259.585 178.33 147.366 286.1C13.9345 413.879 -7.27766 525.51 1.61777 571.847C32.7518 737.188 254.795 844.958 343.75 924.644C339.302 927.102 335.196 929.559 331.433 931.665C286.956 954.132 117.6 1045.05 75.1761 1141.24C27.2777 1250.06 82.703 1328.34 119.653 1338.87C233.925 1371.52 350.934 1312.9 414.229 1216.36C477.181 1119.82 469.654 994.502 440.573 937.282L439.547 935.175L474.444 914.113C497.025 900.422 519.263 887.785 538.765 876.903C527.817 907.443 519.948 943.6 515.842 996.257C511.052 1058.04 535.686 1138.08 568.188 1169.67C582.558 1183.36 599.664 1183.71 610.271 1183.71C647.905 1183.71 665.012 1151.77 683.829 1113.5C707.094 1066.82 727.622 1012.76 727.622 1012.76C727.622 1012.76 701.962 1159.14 772.099 1159.14C797.759 1159.14 823.419 1125.09 835.051 1107.54V1107.89C835.051 1107.89 835.735 1106.83 837.104 1104.38C839.841 1100.17 841.21 1097.71 841.21 1097.71V1097.01C851.474 1078.75 874.396 1036.98 908.61 967.822C952.745 878.658 995.169 767.027 995.169 767.027C995.169 767.027 999.275 794.408 1011.93 839.341C1019.46 866.02 1035.88 895.157 1048.54 923.591C1038.28 938.335 1032.12 946.76 1032.12 946.76L1032.46 947.111C1024.25 958.344 1015.01 970.28 1005.43 982.215C970.535 1025.04 928.795 1073.84 923.321 1087.88C916.821 1104.38 918.189 1116.66 930.848 1126.49C940.086 1133.51 956.508 1134.92 973.957 1133.51C1005.43 1131.41 1027.33 1123.33 1038.28 1118.42C1055.38 1112.1 1074.89 1102.62 1093.7 1088.58C1127.92 1062.6 1148.79 1025.74 1146.73 976.598C1145.71 949.568 1137.15 922.889 1126.55 897.614C1129.63 893.05 1132.71 888.487 1135.79 883.572C1189.84 802.482 1231.58 713.317 1231.58 713.317C1231.58 713.317 1235.69 740.698 1248.35 785.632C1254.85 808.449 1267.85 833.373 1279.48 857.946C1228.85 900.422 1197.03 949.568 1186.08 981.864C1165.89 1041.54 1181.63 1068.57 1211.4 1074.89C1224.74 1077.7 1243.9 1071.38 1258.27 1065.06C1276.06 1059.09 1297.61 1048.91 1317.46 1033.82C1351.67 1007.84 1384.52 971.684 1382.8 922.889C1381.78 900.422 1375.96 878.307 1368.09 857.244C1411.2 838.99 1466.97 828.459 1537.79 837.235C1690.04 855.489 1720.15 953.079 1714.33 993.799C1708.51 1034.52 1676.7 1056.99 1666.09 1064.01C1655.48 1070.68 1652.06 1073.13 1653.09 1078.05C1654.46 1085.42 1659.25 1085.07 1668.48 1083.67C1681.14 1081.56 1748.54 1050.32 1751.28 975.194C1755.39 878.658 1666.09 773.345 1507.68 774.398V774.398ZM333.486 1180.55C283.192 1237.07 212.371 1258.48 182.263 1240.23C149.761 1220.92 162.42 1137.73 224.346 1077.7C261.98 1041.19 310.905 1007.49 343.065 986.779C350.25 982.215 361.198 975.545 374.199 967.471C376.252 966.067 377.621 965.365 377.621 965.365C380.016 963.961 382.753 962.206 385.49 960.451C408.413 1046.1 386.516 1121.23 333.486 1180.55V1180.55ZM701.278 923.942C683.829 967.822 646.879 1080.51 624.64 1074.19C605.481 1068.92 593.848 983.619 620.877 899.369C634.562 856.893 663.643 806.343 680.75 786.685C708.462 755.091 738.57 744.56 746.097 757.548C754.992 774.398 712.226 896.561 701.278 923.942ZM1004.75 1072.78C997.222 1076.65 990.379 1079.45 987.3 1077.35C984.905 1075.94 990.379 1070.68 990.379 1070.68C990.379 1070.68 1028.36 1028.9 1043.41 1009.6C1051.96 998.363 1062.23 985.374 1073.18 970.631V974.843C1073.18 1025.39 1025.96 1059.09 1004.75 1072.78V1072.78ZM1238.77 1018.02C1233.29 1013.81 1233.98 1000.82 1252.45 960.099C1259.64 943.952 1276.06 916.921 1304.46 891.295C1307.88 901.826 1309.93 912.007 1309.59 921.485C1309.25 984.672 1265.45 1008.19 1238.77 1018.02Z" fill="#CF649A"/>
</g>
<defs>
<clipPath id="clip0">
<rect width="1751.72" height="1348" fill="white" transform="translate(0.248047)"/>
</clipPath>
</defs>
</svg>
