<svg width="2197" height="1348" viewBox="0 0 2197 1348" fill="none" xmlns="http://www.w3.org/2000/svg">
  <g clip-path="url(#clip0_207_158)">
    <path
      d="M338.959 1048.69C395.917 980.567 402.618 910.207 358.504 779.539C330.583 696.895 284.235 633.236 318.298 581.862C354.595 527.138 431.655 580.187 367.438 653.339L380.282 662.273C457.342 671.208 495.314 565.669 437.798 535.515C285.911 456.22 153.009 608.666 211.642 785.124C236.771 859.95 271.95 939.245 243.471 1002.34C218.901 1056.51 171.437 1088.34 139.607 1089.46C73.1567 1092.81 117.271 940.361 193.773 902.39C200.474 899.039 209.967 894.572 201.032 883.404C106.661 872.794 51.3787 916.35 19.5494 977.216C-73.1466 1154.23 195.448 1219.57 338.959 1048.69Z"
      fill="#333333" />
    <path
      d="M1997.44 528.255C2019.21 581.862 2052.16 634.911 2032.61 681.818C2016.42 722.023 1995.2 738.776 1971.75 742.684C1938.8 748.268 1947.74 644.963 2004.14 614.25C2009.16 611.458 2016.42 598.056 2009.72 590.239C1938.24 586.33 1898.04 620.393 1876.26 665.624C1813.16 797.967 2019.21 834.263 2120.29 704.154C2160.49 652.222 2162.17 600.848 2123.64 507.594C2099.07 448.403 2061.65 404.288 2085.11 365.2C2110.23 323.877 2170.54 359.616 2125.31 414.898L2135.36 420.482C2193.99 423.833 2218.01 345.655 2173.33 326.111C2055.51 275.854 1945.5 402.613 1997.44 528.255Z"
      fill="#333333" />
    <path
      d="M1251.4 386.978C1210.64 354.59 1096.16 408.756 1063.77 489.167C1023.01 591.355 962.703 740.451 903.511 805.785C840.969 874.469 834.827 821.42 840.969 781.773C855.488 688.519 946.509 472.414 996.207 411.548C977.78 384.186 857.163 388.094 773.402 518.204C742.131 567.344 670.655 730.958 591.36 859.95C574.05 887.871 552.272 868.326 569.024 802.993C588.01 727.607 643.851 520.437 715.886 357.382C904.628 319.969 1105.1 293.723 1258.66 293.165C1279.32 287.581 1293.28 269.153 1258.66 268.036C1126.32 263.569 927.523 279.205 741.572 302.658C777.311 231.181 815.841 174.224 854.93 150.212C812.49 123.408 726.495 134.018 677.355 206.611C655.577 238.999 633.799 278.088 613.138 320.527C476.886 341.746 360.179 365.758 300.988 388.094C239.563 411.548 246.263 485.816 283.677 471.856C361.296 442.819 466.277 412.664 582.984 385.861C508.716 553.384 450.641 751.06 436.681 831.471C402.06 1026.91 523.234 1025.8 582.426 948.737C646.643 864.418 780.661 567.902 801.322 536.631C807.465 526.022 815.841 531.606 811.374 541.099C661.72 839.848 674.563 955.438 795.738 929.751C850.462 918.025 944.833 824.212 969.403 775.63C974.429 763.904 985.039 765.021 982.805 770.046C887.876 1016.3 767.259 1215.66 686.29 1278.2C612.58 1334.6 557.856 1212.31 818.633 1036.97C857.163 1010.72 839.294 974.983 795.738 987.268C661.162 1008.49 275.859 1130.78 106.661 1248.04C93.8177 1256.98 82.0911 1264.24 82.6495 1282.67C83.208 1293.28 101.635 1289.37 110.57 1283.78C329.466 1152.56 508.716 1101.18 714.21 1058.19C717.002 1059.3 720.353 1059.86 723.145 1058.74C732.638 1056.51 732.079 1061.54 725.937 1065.44C711.977 1073.26 698.017 1080.52 694.666 1081.64C556.181 1135.8 472.419 1255.3 502.015 1316.17C527.143 1368.66 662.837 1349.68 727.054 1315.05C884.525 1229.62 998.999 1062.09 1077.18 830.913C1145.3 625.977 1231.3 393.679 1251.4 386.978Z"
      fill="#333333" />
    <path
      d="M2166.63 859.95C1910.32 826.446 1357.5 871.119 1113.47 935.894C1040.88 954.88 1060.98 993.41 1097.84 986.151C1098.4 986.151 1114.03 982.242 1114.59 982.242C1315.06 943.153 1801.43 909.09 2085.11 963.256C2119.17 969.399 2221.36 867.21 2166.63 859.95Z"
      fill="#333333" />
    <path
      d="M1322.88 829.796C1394.35 794.058 1500.45 572.928 1570.25 451.753C1575.28 442.819 1584.21 450.078 1579.19 456.22C1402.73 759.995 1477.56 795.175 1547.36 790.708C1640.61 785.123 1726.61 651.105 1745.59 620.951C1753.41 609.224 1757.88 618.717 1753.41 627.094C1748.94 641.054 1732.75 665.624 1717.67 699.128C1696.45 746.593 1718.79 765.021 1737.22 773.397C1766.25 787.357 1845.55 778.422 1857.83 729.841C1778.54 728.166 1968.4 354.031 1987.94 331.137C1934.89 300.424 1852.81 333.929 1815.39 407.639C1735.54 565.669 1668.53 692.986 1626.65 695.22C1545.12 699.687 1720.46 342.863 1748.94 331.695C1731.63 306.567 1620.51 317.176 1558.53 413.223C1536.19 447.844 1399.94 689.077 1366.43 728.724C1307.24 799.084 1302.77 738.775 1319.53 668.416C1325.11 644.404 1334.6 613.692 1346.89 579.629C1385.98 491.4 1427.86 463.48 1453.54 435.001C1626.09 243.466 1724.93 88.2287 1685.84 27.3621C1651.22 -26.8036 1535.63 -2.79205 1461.36 108.89C1324.55 313.826 1198.35 594.706 1182.16 723.14C1166.52 851.574 1259.78 861.067 1322.88 829.796ZM1395.47 453.987C1401.61 440.027 1405.52 436.118 1416.13 412.664C1477.56 277.529 1554.62 135.135 1607.67 68.6843C1640.61 34.063 1686.96 80.9694 1603.2 209.403C1554.06 285.347 1498.22 355.148 1437.35 416.573C1437.35 416.573 1437.35 416.573 1437.35 417.132C1421.72 434.442 1407.75 448.961 1401.61 457.337C1397.15 462.921 1392.12 461.804 1395.47 453.987Z"
      fill="#333333" />
  </g>
  <defs>
    <clipPath id="clip0_207_158">
      <rect width="2196.22" height="1348" fill="white" transform="translate(0.563477)" />
    </clipPath>
  </defs>
</svg>