<svg width="1349" height="1348" viewBox="0 0 1349 1348" fill="none" xmlns="http://www.w3.org/2000/svg">
  <g clip-path="url(#clip0_202_16)">
    <path fill-rule="evenodd" clip-rule="evenodd"
      d="M337.353 539.201C382.279 359.475 494.626 269.601 674.353 269.601C943.953 269.601 977.653 471.801 1112.45 505.501C1202.33 527.975 1280.95 494.275 1348.35 404.401C1303.43 584.127 1191.08 674.001 1011.35 674.001C741.753 674.001 708.053 471.801 573.253 438.101C483.379 415.627 404.753 449.327 337.353 539.201ZM0.352539 943.601C45.2789 763.875 157.626 674.001 337.353 674.001C606.953 674.001 640.653 876.201 775.453 909.901C865.326 932.375 943.953 898.675 1011.35 808.801C966.426 988.527 854.079 1078.4 674.353 1078.4C404.753 1078.4 371.053 876.201 236.253 842.501C146.379 820.027 67.7525 853.727 0.352539 943.601Z"
      fill="url(#paint0_linear_202_16)" />
  </g>
  <defs>
    <linearGradient id="paint0_linear_202_16" x1="0.352573" y1="-449.325" x2="1348.35" y2="1797.33"
      gradientUnits="userSpaceOnUse">
      <stop stop-color="#2383AE" />
      <stop offset="1" stop-color="#6DD7B9" />
    </linearGradient>
    <clipPath id="clip0_202_16">
      <rect width="1348" height="1348" fill="white" transform="translate(0.352539)" />
    </clipPath>
  </defs>
</svg>