<svg width="1339" height="1348" viewBox="0 0 1339 1348" fill="none" xmlns="http://www.w3.org/2000/svg">
<path d="M38.264 481.874C38.264 481.874 6.56944 458.45 44.6029 427.174L133.216 345.936C133.216 345.936 158.571 318.586 185.38 342.416L1003.1 977.151V1281.52C1003.1 1281.52 1002.7 1329.32 942.879 1324.04L38.264 481.874Z" fill="#2489CA"/>
<path d="M249.033 678.062L38.2644 874.521C38.2644 874.521 16.6065 891.04 38.2644 920.556L136.121 1011.81C136.121 1011.81 159.364 1037.4 193.7 1008.29L417.146 834.58L249.033 678.062Z" fill="#1070B3"/>
<path d="M619.067 679.687L1005.61 377.077L1003.1 74.3325C1003.1 74.3325 986.591 8.25935 931.522 42.6499L417.146 522.628L619.067 679.687Z" fill="#0877B9"/>
<path d="M942.879 1324.44C965.329 1348 992.534 1340.28 992.534 1340.28L1293.76 1188.1C1332.33 1161.15 1326.91 1127.71 1326.91 1127.71V218.935C1326.91 178.993 1287.03 165.183 1287.03 165.183L1025.95 36.1507C968.895 2.61895e-05 931.522 42.6497 931.522 42.6497C931.522 42.6497 979.592 7.17601 1003.1 74.3323V1275.97C1003.1 1284.23 1001.38 1292.35 997.948 1299.66C991.081 1313.88 976.158 1327.15 940.37 1321.6L942.879 1324.44Z" fill="#3C99D4"/>
</svg>
