<svg width="1316" height="1348" viewBox="0 0 1316 1348" fill="none" xmlns="http://www.w3.org/2000/svg">
<g clip-path="url(#clip0)">
<path d="M394.67 416.016H322.013L520.096 989.698L630.988 665.024L545.012 416.016H468.352V361.352H807.825V416.016H728.33L926.409 989.698L997.612 781.226C1091.01 514.134 921.058 430.933 921.058 371.325C921.058 311.717 968.222 263.398 1026.4 263.398C1029.55 263.398 1032.6 263.572 1035.6 263.858C937.022 168.517 804.102 110.05 657.842 110.05C466.73 110.05 298.389 209.857 199.705 361.352H394.664V416.016H394.67Z" fill="#00769D"/>
<path d="M107.413 674C107.413 889.91 225.859 1077.45 399.789 1172.21L151.389 452.801C123.092 520.719 107.413 595.482 107.413 674Z" fill="#00769D"/>
<path d="M1136.89 396.104C1144.76 443.601 1142.38 496.985 1130.29 550.577H1132.48L1124.16 574.943C1119.23 592.537 1113.02 610.534 1105.97 628.219L916.567 1171.85C1090.13 1076.97 1208.28 889.632 1208.28 673.997C1208.28 572.953 1182.31 478.129 1136.89 396.104Z" fill="#00769D"/>
<path d="M488.087 1210.57C541.562 1228.32 598.601 1237.94 657.848 1237.94C714.358 1237.94 768.872 1229.21 820.193 1213L659.185 746.689L488.087 1210.57Z" fill="#00769D"/>
<path d="M1123.01 197.409C998.764 70.1079 833.562 0 657.845 0C482.127 0 316.928 70.1079 192.678 197.409C68.4277 324.71 0 493.965 0 674C0 854.032 68.4277 1023.29 192.678 1150.59C316.928 1277.89 482.13 1348 657.847 1348C833.565 1348 998.764 1277.89 1123.02 1150.59C1247.27 1023.29 1315.69 854.029 1315.69 674C1315.69 493.965 1247.26 324.71 1123.01 197.409ZM657.845 1300.45C320.696 1300.45 46.4061 1019.43 46.4061 674C46.4061 328.573 320.696 47.5456 657.845 47.5456C994.993 47.5456 1269.28 328.573 1269.28 674C1269.28 1019.43 994.996 1300.45 657.845 1300.45Z" fill="#00769D"/>
</g>
<defs>
<clipPath id="clip0">
<rect width="1315.69" height="1348" fill="white"/>
</clipPath>
</defs>
</svg>
