<svg width="191" height="191" viewBox="0 0 191 191" fill="none" xmlns="http://www.w3.org/2000/svg">
  <path
    d="M147.729 92.1205C146.938 102.937 147.729 108.62 143.729 118.62C143.374 119.509 143.948 120.051 144.229 120.12C145.729 119.62 151.729 116.62 155.229 105.62C156.913 100.328 157.502 97.0163 157.729 91.6205C158.236 79.6235 149.229 64.3065 148.229 62.6205C147.585 61.5344 146.854 61.2285 146.337 61.0125C146.052 60.8932 145.833 60.8013 145.729 60.6205C145.729 60.6205 144.854 62.4937 145.229 63.6205C146.229 66.6205 148.299 84.3346 147.729 92.1205Z"
    fill="#0041E9" />
  <path
    d="M184.517 103.596C183.68 107.13 182.324 109.593 179.017 111.096C176.538 112.223 174.066 112.007 171.871 111.816C170.095 111.661 168.501 111.522 167.229 112.12C166.96 111.492 165.735 108.463 166.229 106.62C166.75 104.679 169.517 103.596 169.517 103.596C170.5 103.596 172.086 100.819 173.802 97.817C175.577 94.709 177.491 91.359 179.017 90.5961C181.017 89.5961 185.788 98.2319 184.517 103.596Z"
    fill="#0041E9" />
  <path
    d="M110.017 94.0961C108.017 90.5961 113.517 75.196 117.517 77.5961C118.52 78.1974 119.441 81.0488 120.476 84.2495C121.873 88.5703 123.476 93.5277 125.76 94.4458C125.841 95.4162 126.006 98.3041 125.229 99.6205C124.733 100.461 123.017 101.096 123.017 101.096C122.163 99.8154 120.216 99.3093 118.031 98.7413C115.098 97.9788 111.737 97.105 110.017 94.0961Z"
    fill="#0041E9" />
  <path
    d="M116.729 32.1205C116.729 32.1205 117.948 34.8081 116.729 35.6205C116.083 36.0511 113.935 35.1645 113.083 34.7833C108.19 31.4129 100.469 30.9042 94.5212 30.5123C89.4796 30.1802 85.7114 29.9319 86.0173 28.0961C86.2673 26.5961 88.8923 25.5961 91.5173 24.5961C94.1423 23.5961 96.7673 22.5961 97.0173 21.0961C97.1676 20.1943 96.0964 18.43 94.7168 16.1576C92.3236 12.2161 89.0024 6.74576 89.5173 1.59608C89.8152 -1.38213 97.741 7.34784 105.264 15.6344C105.264 15.6344 108.355 19.1091 110.5 21.3555C112.639 23.5954 116.229 27.1205 116.229 27.1205C116.229 28.585 116.729 32.1205 116.729 32.1205Z"
    fill="#0041E9" />
  <path
    d="M127.935 60.4756C125.014 49.3985 122.593 41.8578 113.435 34.9756C113.293 34.8687 113.148 34.7645 113 34.6628C113.853 35.044 116.001 35.9307 116.647 35.5C117.865 34.6877 116.647 32 116.647 32C116.647 32 137.323 45.9336 145.647 60.5C145.647 60.5 144.771 62.3732 145.147 63.5C146.147 66.5 148.216 84.2142 147.647 92C146.855 102.816 147.647 108.5 143.647 118.5C143.291 119.389 143.866 119.93 144.147 120C136.468 133.142 129.974 140.171 118.917 151.38C116.917 148.88 116.917 137.344 116.917 130.38C116.917 128.88 115.417 127.88 115.917 124.88C116.417 121.88 118.573 120.759 118.917 119.38C120.417 113.38 124.935 103.976 122.935 100.976C122.935 100.976 124.651 100.341 125.147 99.5C125.923 98.1836 125.759 95.2957 125.678 94.3253C127.177 94.3253 131.324 73.327 127.935 60.4756Z"
    fill="#0A92D1" />
  <path
    d="M145.771 143.88C136.917 148.307 120.771 153.88 118.771 151.38C129.827 140.171 136.322 133.142 144 120C145.5 119.5 151.5 116.5 155 105.5C156.684 100.208 157.272 96.8959 157.5 91.5C158.006 79.503 149 64.186 148 62.5C147.356 61.4139 146.625 61.108 146.108 60.892C145.823 60.7727 145.603 60.6808 145.5 60.5C137.176 45.9336 116.5 32 116.5 32C116.5 32 116 28.4645 116 27C117.179 27.7505 120.312 29.7051 122.611 30.9253C135.431 37.7288 162.374 52.0273 166.788 75.9756C167.547 80.0958 167.718 86.1854 167.869 91.5875C168.049 98.0187 168.201 103.476 169.288 103.476C169.288 103.476 166.521 104.558 166 106.5C165.506 108.342 166.731 111.372 167 112C166.355 112.304 165.742 112.682 165.288 113.476C164.675 114.548 164.015 116.408 163.222 118.646L163.222 118.646C161.427 123.709 158.946 130.704 154.771 134.88C153.205 136.445 153.142 137.589 153.085 138.63C153.032 139.584 152.984 140.451 151.788 141.476C150.37 142.691 149.59 142.819 148.633 142.975L148.633 142.975C147.902 143.094 147.069 143.23 145.771 143.88Z"
    fill="#009DE6" />
  <ellipse cx="118.5" cy="126" rx="2.5" ry="4" transform="rotate(-180 118.5 126)" fill="#451408" />
  <ellipse cx="150.35" cy="139.71" rx="2.5" ry="4" transform="rotate(-144.765 150.35 139.71)" fill="#451408" />
  <path
    d="M43 99C43.7914 88.1835 43 82.5 47 72.5C47.3555 71.6113 46.781 71.0696 46.5 71C45 71.5 39 74.5 35.5 85.5C33.8161 90.7924 33.2277 94.1041 33 99.5C32.4937 111.497 41.5 126.814 42.5 128.5C43.1443 129.586 43.8755 129.892 44.3919 130.108C44.6771 130.227 44.8967 130.319 45 130.5C45 130.5 45.8756 128.627 45.5 127.5C44.5 124.5 42.4304 106.786 43 99Z"
    fill="#009DE6" />
  <path
    d="M6.21197 87.5244C7.04886 83.9901 8.40544 81.5274 11.712 80.0244C14.1908 78.8977 16.663 79.1133 18.8588 79.3047C20.6339 79.4596 22.2285 79.5986 23.5 79C23.7688 79.6283 24.9942 82.6579 24.5 84.5C23.9791 86.4417 21.212 87.5244 21.212 87.5244C20.2292 87.5244 18.6429 90.301 16.9275 93.3035C15.1518 96.4115 13.2379 99.7615 11.712 100.524C9.71197 101.524 4.94179 92.8886 6.21197 87.5244Z"
    fill="#009DE6" />
  <path
    d="M80.712 97.0244C82.712 100.524 77.212 115.925 73.212 113.524C72.2098 112.923 71.2879 110.072 70.2531 106.871C68.8561 102.55 67.2534 97.5928 64.9693 96.6747C64.888 95.7043 64.7237 92.8164 65.5 91.5C65.996 90.6591 67.712 90.0244 67.712 90.0244C68.566 91.305 70.5131 91.8112 72.6979 92.3792C75.6311 93.1417 78.9927 94.0155 80.712 97.0244Z"
    fill="#009DE6" />
  <path
    d="M74 159C74 159 72.7815 156.312 74 155.5C74.646 155.069 76.7941 155.956 77.6468 156.337C82.5395 159.708 90.26 160.216 96.2081 160.608C101.25 160.94 105.018 161.189 104.712 163.024C104.462 164.524 101.837 165.524 99.212 166.524C96.587 167.524 93.962 168.524 93.712 170.024C93.5617 170.926 94.6329 172.69 96.0126 174.963C98.4057 178.904 101.727 184.375 101.212 189.524C100.914 192.503 92.9883 183.773 85.4649 175.486C85.4649 175.486 82.374 172.011 80.2293 169.765C78.0907 167.525 74.5 164 74.5 164C74.5 162.536 74 159 74 159Z"
    fill="#009DE6" />
  <path
    d="M62.7945 130.645C65.7156 141.722 68.1364 149.263 77.2945 156.145C77.4368 156.252 77.5818 156.356 77.7293 156.458C76.8766 156.076 74.7285 155.19 74.0825 155.62C72.864 156.433 74.0825 159.12 74.0825 159.12C74.0825 159.12 53.4062 145.187 45.0825 130.62C45.0825 130.62 45.9581 128.747 45.5825 127.62C44.5825 124.62 42.5129 106.906 43.0825 99.1205C43.8739 88.304 43.0825 82.6205 47.0825 72.6205C47.438 71.7318 46.8635 71.1901 46.5825 71.1205C54.261 57.9784 60.7557 50.9496 71.8119 39.7409C73.8119 42.2409 73.8119 53.7767 73.8119 60.7409C73.8119 62.2409 75.3119 63.2409 74.8119 66.2409C74.3119 69.2409 72.1567 70.3619 71.8119 71.7409C70.3119 77.7409 65.7939 87.1449 67.7945 90.1449C67.7945 90.1449 66.0785 90.7796 65.5825 91.6205C64.8062 92.9369 64.9705 95.8248 65.0518 96.7952C63.5518 96.7952 59.4055 117.793 62.7945 130.645Z"
    fill="#E8F8FF" />
  <path
    d="M44.9587 47.2409C53.8125 42.814 69.9587 37.2409 71.9587 39.7409C60.9025 50.9496 54.4078 57.9783 46.7293 71.1205C45.2293 71.6205 39.2293 74.6205 35.7293 85.6205C34.0453 90.9129 33.457 94.2246 33.2293 99.6205C32.7229 111.617 41.7293 126.934 42.7293 128.62C43.3735 129.707 44.1048 130.013 44.6212 130.229C44.9063 130.348 45.126 130.44 45.2293 130.62C53.553 145.187 74.2293 159.12 74.2293 159.12C74.2293 159.12 74.7293 162.656 74.7293 164.12C73.55 163.37 70.4171 161.415 68.118 160.195C55.298 153.392 28.3552 139.093 23.9412 115.145C23.1818 111.025 23.0116 104.935 22.8606 99.533C22.6808 93.1018 22.5282 87.6449 21.4412 87.6449C21.4412 87.6449 24.2083 86.5622 24.7293 84.6205C25.2235 82.7784 23.9981 79.7488 23.7293 79.1205C24.3747 78.8167 24.9876 78.4387 25.4412 77.6449C26.0542 76.5722 26.7138 74.7121 27.5072 72.4746L27.5073 72.4745C29.3026 67.4115 31.7832 60.4163 35.9586 56.2409C37.5238 54.6757 37.5872 53.5315 37.6448 52.4908C37.6976 51.5368 37.7456 50.6697 38.9413 49.6448C40.3592 48.4294 41.1394 48.3019 42.0965 48.1456L42.0966 48.1456C42.8269 48.0262 43.6603 47.8901 44.9587 47.2409Z"
    fill="#D3F2FF" />
  <ellipse cx="72.2293" cy="65.1204" rx="2.5" ry="4" fill="#451408" />
  <ellipse cx="40.3795" cy="51.4109" rx="2.5" ry="4" transform="rotate(35.2348 40.3795 51.4109)" fill="#451408" />
</svg>