<svg width="inherit" viewBox="0 0 24 24" fill="none" xmlns="http://www.w3.org/2000/svg">
  <path fill-rule="evenodd" clip-rule="evenodd"
    d="M14 2H10C8.89 2 8 2.89 8 4V6H4C2.89 6 2 6.89 2 8V19C2 20.1 2.89 21 4 21H11.81C11.26 20.42 10.81 19.75 10.5 19H4V8H20V11C20.8 11.54 21.5 12.23 22 13.03V8C22 7.46957 21.7893 6.96086 21.4142 6.58579C21.0391 6.21071 20.5304 6 20 6H16V4C16 3.46957 15.7893 2.96086 15.4142 2.58579C15.0391 2.21071 14.5304 2 14 2ZM14 4V6H10V4H14ZM17.5 17C18.06 17 18.5 17.44 18.5 18C18.5 18.56 18.06 19 17.5 19C16.94 19 16.5 18.56 16.5 18C16.5 17.44 16.94 17 17.5 17ZM17.5 14C14.77 14 12.44 15.66 11.5 18C12.44 20.34 14.77 22 17.5 22C20.23 22 22.56 20.34 23.5 18C22.56 15.66 20.23 14 17.5 14ZM17.5 20.5C16.837 20.5 16.2011 20.2366 15.7322 19.7678C15.2634 19.2989 15 18.663 15 18C15 17.337 15.2634 16.7011 15.7322 16.2322C16.2011 15.7634 16.837 15.5 17.5 15.5C18.163 15.5 18.7989 15.7634 19.2678 16.2322C19.7366 16.7011 20 17.337 20 18C20 18.663 19.7366 19.2989 19.2678 19.7678C18.7989 20.2366 18.163 20.5 17.5 20.5Z"
    fill="currentColor" />
</svg>
