<svg xmlns="http://www.w3.org/2000/svg" viewBox="0 0 243.71 48.43">
  <defs>
    <style>
      .cls-1 {
        isolation: isolate;
      }

      .cls-10,
      .cls-2,
      .cls-8 {
        fill: #ffebb7;
      }

      .cls-3 {
        fill: #5c546a;
      }

      .cls-4 {
        fill: #00c37a;
      }

      .cls-5 {
        fill: #009bca;
      }

      .cls-6 {
        fill: #e6be94;
      }

      .cls-7 {
        fill: #ff4f19;
      }

      .cls-8 {
        font-size: 9.5px;
      }

      .cls-10,
      .cls-8 {
        font-family: Arial-BoldMT, Arial;
        font-weight: 700;
      }

      .cls-9 {
        letter-spacing: -0.01em;
      }

      .cls-10 {
        font-size: 38px;
      }
    </style>
  </defs>
  <title>Ресурс 1</title>
  <g id="Слой_2" data-name="Слой 2">
    <g id="Монтажная_область_1" data-name="Монтажная область 1" class="cls-1">
      <g id="_163825_Изображение" data-name="163825 Изображение">
        <path class="cls-2" d="M27.16,31.69H5.93A4.13,4.13,0,0,1,1.8,27.56v-.79a4.13,4.13,0,0,1,4.13-4.13H27.16Z" />
        <rect class="cls-3" x="2.71" y="23.54" width="2.26" height="7.25" />
        <path class="cls-2" d="M25,21.28H.89V14.94H25a1.24,1.24,0,0,1,1.25,1.24V20A1.25,1.25,0,0,1,25,21.28Z" />
        <rect class="cls-2" x="4.06" y="6.78" width="23.1" height="6.79" />
        <path class="cls-4"
          d="M27.17,32.6H6.34a5.44,5.44,0,0,1,0-10.87H27.17a.91.91,0,1,1,0,1.81H6.34a3.63,3.63,0,0,0,0,7.25H27.17a.91.91,0,1,1,0,1.81Z" />
        <path class="cls-5"
          d="M24.46,21.73H.45A.45.45,0,0,1,0,21.28a.46.46,0,0,1,.45-.46h24a1.35,1.35,0,0,0,1.36-1.35V16.75a1.36,1.36,0,0,0-1.36-1.36H.45A.45.45,0,0,1,0,14.94a.46.46,0,0,1,.45-.46h24a2.27,2.27,0,0,1,2.26,2.27v2.72A2.26,2.26,0,0,1,24.46,21.73Z" />
        <path class="cls-6" d="M27.16,9.05H6.33a.45.45,0,0,1-.45-.45h0a.46.46,0,0,1,.45-.46H27.16Z" />
        <path class="cls-6" d="M27.16,10.86H6.33a.45.45,0,0,1-.45-.45h0A.45.45,0,0,1,6.33,10H27.16Z" />
        <path class="cls-6" d="M27.16,12.67H6.33a.45.45,0,0,1-.45-.45h0a.45.45,0,0,1,.45-.45H27.16Z" />
        <path class="cls-6" d="M.89,16.3H24.44a.46.46,0,0,1,.46.45h0a.46.46,0,0,1-.46.45H.89Z" />
        <path class="cls-6" d="M.89,18.11H24.44a.46.46,0,0,1,.46.45h0a.46.46,0,0,1-.46.45H.89Z" />
        <path class="cls-6" d="M.89,19.92H24.44a.46.46,0,0,1,.46.45h0a.46.46,0,0,1-.46.45H.89Z" />
        <path class="cls-7"
          d="M27.63,14.48H5.89a2.71,2.71,0,0,1-2.72-2.71V8.14A2.71,2.71,0,0,1,5.89,5.43H27.63a.91.91,0,0,1,0,1.81H5.89a.9.9,0,0,0-.91.9v3.63a.9.9,0,0,0,.91.9H27.63a.91.91,0,0,1,0,1.81Z" />
        <path class="cls-6" d="M6.33,29.88a.46.46,0,0,0-.45.46.45.45,0,0,0,.45.45H27.16v-.91Z" />
        <path class="cls-6" d="M6.33,28.07a.45.45,0,0,0-.45.45.46.46,0,0,0,.45.46H27.16v-.91Z" />
        <path class="cls-6" d="M6.33,26.26a.45.45,0,0,0-.45.45.46.46,0,0,0,.45.46H27.16v-.91Z" />
        <path class="cls-6" d="M6.33,24.45a.45.45,0,0,0,0,.9H27.16v-.9Z" />
      </g>
      <g id="progbooks" data-name="progbooks"><text class="cls-8" transform="translate(119.92 44.85)">Книги для
          программис<tspan class="cls-9" x="107.63" y="0">т</tspan>
          <tspan x="112.15" y="0">ов</tspan>
        </text></g>
      <g id="ProgBooks"><text class="cls-10" transform="translate(30.92 32.6)">ProgBooks</text></g>
    </g>
  </g>
</svg>