<svg viewBox="0 0 997 221" xmlns="http://www.w3.org/2000/svg">
  <style>
    .fil0 {
      fill: red;
      fill-rule: nonzero
    }
  </style>
  <g>
    <path class="fil0"
      d="M198 145c-19,48 -73,72 -122,53 -48,-19 -72,-73 -53,-122 19,-48 74,-72 122,-53 48,19 72,74 53,122zm-47 -137c-57,-23 -121,5 -143,62 -23,57 5,121 62,143 57,23 121,-5 143,-62 23,-57 -5,-121 -62,-143z">
    </path>
    <path class="fil0"
      d="M169 151l-1 0 0 2c0,0 -14,-1 -22,-2 -1,-11 -4,-39 -4,-39l-7 -48 1 0 23 11 -3 24 2 1c0,0 7,-7 11,-21l0 42 -1 1 0 3 0 0 0 0 0 3 1 0 0 12 -1 0 0 5 1 0 0 1 -1 0 0 1 1 0 0 4zm-30 -8l-2 -20 2 0 3 20 -3 0zm-3 -41l0 0 3 20 -2 0 -1 -20zm-1 -10l1 9 0 0 -1 -9zm-21 52l16 -66 5 66 -21 0zm-13 0l0 -19 0 0 0 0 -2 -1 1 -11 -2 -3 0 -3 1 0 1 -12 7 0 -1 -3 -6 -6 -1 -3 0 -1 0 -20 1 0c0,0 0,-2 0,-8 1,-6 0,-4 -2,-5 0,-5 2,-3 2,-3l27 13c3,1 3,4 3,4l-1 0 0 3 -1 1 0 6 -18 71 -9 0zm-4 -62l-5 1 1 -25 0 -2 5 -1 -1 27zm-1 12l1 0 0 2 -1 0 0 -2zm1 9l-1 0 0 -2 1 0 0 2zm-5 -6l-2 0 0 -2 2 0 0 2zm-1 7l-1 0 0 -2 1 0 0 2zm-7 40l-18 -1 -6 2 -1 -1 25 -17 0 17zm87 9l-1 0 0 -2 0 0 0 -4 0 0 0 -1 0 0 0 0 0 0 0 -1 0 0 0 -4 0 -1 0 -12 1 0 0 -3 -1 0 0 -3 0 -1 0 -29c0,-8 0,-15 1,-20 1,-16 -2,-18 -2,-18l-4 0 -4 5 -8 0 0 1 -56 -26 -2 9 -1 7 -3 1 0 5 1 0 0 0 -2 27c-2,0 -9,7 -9,7l0 3 7 0 0 13 -4 0 -26 22 0 -3 -1 -1 -11 0 -2 2 0 14c3,0 2,5 2,5l-7 1 0 6 -1 0 0 7 137 0 0 -6 -4 0z">
    </path>
  </g>
  <g>
    <path class="fil0"
      d="M548 110c1,-2 2,-4 2,-6l0 -22 -6 -7 6 -8 0 -22c0,-2 -1,-4 -2,-6 -1,-2 -3,-4 -5,-5 -2,-1 -4,-2 -6,-2l-19 0 0 27 11 0 0 -19 10 0 0 31 -10 0 0 7 10 0 0 31 -10 0 0 -19 -11 0 0 27 19 0c2,0 4,-1 6,-2 2,-1 4,-3 5,-5z">
    </path>
    <path class="fil0"
      d="M502 83l-11 0 0 -43 11 0 0 43zm9 -44c-1,-2 -3,-4 -5,-5 -2,-1 -4,-2 -6,-2l-6 0c-2,0 -5,1 -7,2 -2,1 -3,3 -4,5 -2,2 -2,4 -2,6l0 72 10 0 0 -26 11 0 0 26 11 0 0 -72c0,-2 -1,-4 -2,-6z">
    </path>
    <polygon class="fil0" points="401,40 401,32 369,32 369,40 380,40 380,117 390,117 390,40 "></polygon>
    <path class="fil0"
      d="M294 90l0 19 -11 0 0 -31 11 0 0 -7 -11 0 0 -31 11 0 0 19 11 0 0 -27 -19 0c-2,0 -4,1 -6,2 -3,1 -4,3 -5,5 -2,2 -2,4 -2,6l0 59c0,2 0,4 2,6 1,2 2,4 5,5 2,1 4,2 6,2l19 0 0 -27 -11 0z">
    </path>
    <polygon class="fil0"
      points="257,32 257,71 246,71 246,32 235,32 235,117 246,117 246,78 257,78 257,117 267,117 267,32 "></polygon>
    <path class="fil0"
      d="M342 40l11 0 0 43 -11 0 0 -43zm8 51c2,0 5,-1 7,-2 2,-2 3,-3 4,-6 2,-2 2,-4 2,-6l0 -32c0,-2 0,-4 -2,-6 -1,-2 -2,-4 -4,-5 -2,-1 -5,-2 -7,-2l-6 0c-1,0 -2,1 -3,1 -2,1 -3,2 -3,3 -1,-1 -2,-2 -4,-3 -2,0 -4,-1 -5,-1l-7 0c-3,0 -6,2 -8,5 -3,3 -4,5 -4,8l0 33c0,4 2,7 4,9 2,2 5,3 8,4l9 0 0 -8 -10 0 0 -43 10 0 0 43 0 8 0 26 11 0 0 -26 8 0z">
    </path>
    <path class="fil0"
      d="M428 90l0 19 -11 0 0 -31 11 0 0 -7 -11 0 0 -31 11 0 0 19 10 0 0 -27 -19 0c-2,0 -4,1 -6,2 -2,1 -4,3 -5,5 -1,2 -2,4 -2,6l0 59c0,2 1,4 2,6 1,2 3,4 5,5 2,1 4,2 6,2l19 0 0 -27 -10 0z">
    </path>
    <path class="fil0"
      d="M465 40l0 10 10 0 0 -18 -18 0c-3,0 -5,1 -7,2 -2,1 -3,3 -5,5 -1,2 -2,4 -2,6l0 72 11 0 0 -77 11 0z"></path>
    <path class="fil0"
      d="M659 110c2,-2 2,-4 2,-6l0 -22 -6 -7 6 -8 0 -22c0,-2 0,-4 -2,-6 -1,-2 -3,-4 -5,-5 -2,-1 -4,-2 -6,-2l-19 0 0 27 11 0 0 -19 11 0 0 31 -11 0 0 7 11 0 0 31 -11 0 0 -19 -11 0 0 27 19 0c2,0 4,-1 6,-2 2,-1 4,-3 5,-5z">
    </path>
    <path class="fil0"
      d="M576 109l-11 0 0 -43 11 0 0 43zm11 -5l0 -32c0,-2 -1,-4 -2,-6 -1,-2 -3,-4 -5,-5 -2,-2 -4,-2 -6,-2l-9 0 0 -19 11 0 0 7 11 0 0 -2c0,-2 -1,-3 -2,-5 -1,-2 -2,-3 -3,-4 -2,-2 -5,-4 -8,-4l-20 0 0 72 0 13 20 0c3,0 6,-1 9,-4 2,-3 4,-6 4,-9z">
    </path>
    <path class="fil0"
      d="M920 110c1,-2 2,-4 2,-6l0 -14 -11 0 0 19 -10 0 0 -69 10 0 0 19 11 0 0 -14c0,-2 -1,-4 -2,-6 -1,-2 -3,-4 -5,-5 -2,-1 -4,-2 -6,-2l-6 0c-2,0 -4,1 -6,2 -2,1 -4,3 -5,5 -1,2 -2,4 -2,6l0 58c0,4 1,7 4,10 2,2 5,4 9,4l6 0c2,0 4,-1 6,-2 2,-1 4,-3 5,-5z">
    </path>
    <polygon class="fil0"
      points="837,32 837,71 826,71 826,32 816,32 816,117 826,117 826,78 837,78 837,117 847,117 847,32 "></polygon>
    <path class="fil0"
      d="M985 109l-10 0 0 -43 10 0 0 43zm4 -48c-2,-2 -4,-2 -6,-2l-8 0 0 -27 -11 0 0 72c0,2 1,4 2,6 1,2 3,4 5,5 2,1 4,2 6,2l6 0c2,0 4,-1 6,-2 2,-1 4,-3 5,-5 1,-2 2,-4 2,-6l0 -32c0,-2 -1,-4 -2,-6 -1,-2 -3,-4 -5,-5z">
    </path>
    <polygon class="fil0" points="959,40 959,32 927,32 927,40 937,40 937,117 948,117 948,40 "></polygon>
    <path class="fil0"
      d="M874 109l-11 0 0 -69 11 0 0 69zm9 1c1,-1 2,-4 2,-6l0 -58c0,-3 -1,-5 -2,-7 -1,-2 -3,-4 -5,-5 -2,-1 -4,-2 -6,-2l-6 0c-2,0 -4,1 -6,2 -2,1 -4,3 -5,5 -2,2 -2,4 -2,6l0 58c0,3 0,5 1,7 2,2 3,4 5,5 2,1 4,2 6,2l7 0c2,0 4,-1 6,-2 2,-1 4,-3 5,-5z">
    </path>
    <path class="fil0"
      d="M688 109l-11 0 0 -69 11 0 0 69zm9 1c1,-1 1,-4 1,-6l0 -58c0,-3 0,-5 -1,-7 -2,-2 -3,-4 -5,-5 -2,-1 -4,-2 -7,-2l-6 0c-2,0 -4,1 -6,2 -2,1 -3,3 -5,5 -1,2 -2,4 -2,6l0 58c0,3 1,5 2,7 1,2 3,4 5,5 2,1 4,2 6,2l6 0c3,0 5,-1 7,-2 2,-1 3,-3 5,-5z">
    </path>
    <path class="fil0"
      d="M613 90l0 19 -10 0 0 -31 10 0 0 -7 -10 0 0 -31 10 0 0 19 11 0 0 -27 -19 0c-2,0 -4,1 -6,2 -2,1 -4,3 -5,5 -1,2 -2,4 -2,6l0 59c0,2 1,4 2,6 1,2 3,4 5,5 2,1 4,2 6,2l19 0 0 -27 -11 0z">
    </path>
    <path class="fil0"
      d="M808 110c2,-2 2,-4 2,-6l0 -14 -10 0 0 19 -11 0 0 -69 11 0 0 19 10 0 0 -14c0,-2 0,-4 -2,-6 -1,-2 -2,-4 -4,-5 -2,-1 -5,-2 -7,-2l-6 0c-2,0 -4,1 -6,2 -2,1 -4,3 -5,5 -1,2 -2,4 -2,6l0 58c0,4 1,7 4,10 2,2 5,4 9,4l6 0c2,0 4,-1 7,-2 1,-1 3,-3 4,-5z">
    </path>
    <path class="fil0"
      d="M762 83l-11 0 0 -43 11 0 0 43zm9 -44c-1,-2 -3,-4 -5,-5 -2,-1 -4,-2 -6,-2l-6 0c-2,0 -4,1 -6,2 -2,1 -4,3 -5,5 -1,2 -2,4 -2,6l0 72 11 0 0 -26 11 0 0 26 10 0 0 -72c0,-2 -1,-4 -2,-6z">
    </path>
    <polygon class="fil0" points="725,32 714,32 704,32 704,117 714,117 714,40 725,40 725,117 736,117 736,32 "></polygon>
  </g>
  <g>
    <path class="fil0"
      d="M255 134l0 46 -5 0 0 -40 -5 0 -3 40 -8 0 0 -5 3 0 3 -41 15 0zm21 10l2 36 -5 0 -1 -10 -6 0 0 10 -6 0 3 -36 13 0zm-4 21l-1 -16 -4 0 -1 16 6 0zm27 -21l0 5 -11 0 0 11 11 0 0 20 -16 0 0 -36 16 0zm-5 31l0 -10 -6 0 0 10 6 0zm27 -31l0 36 -16 0 0 -36 16 0zm-11 31l6 0 0 -26 -6 0 0 26zm34 -31l0 24 -11 0 0 12 -6 0 0 -36 17 0zm-11 19l6 0 0 -14 -6 0 0 14zm29 -19l3 36 -5 0 -1 -10 -6 0 -1 10 -5 0 2 -36 13 0zm-3 21l-1 -16 -4 0 -1 16 6 0zm23 -21l0 5 -6 0 0 31 -5 0 0 -31 -6 0 0 -5 17 0zm20 0l0 36 -17 0 0 -36 17 0zm-11 31l6 0 0 -26 -6 0 0 26zm33 -31l0 24 -11 0 0 12 -5 0 0 -36 16 0zm-11 19l6 0 0 -14 -6 0 0 14zm35 -19l0 36 -5 0 0 -23 -8 23 -5 0 0 -36 5 0 0 24 8 -24 5 0zm23 36l-5 0 0 -12 -3 0 -4 12 -6 0 5 -12 -4 0 0 -24 17 0 0 36zm-11 -31l0 14 6 0 0 -14 -6 0zm37 -5l0 16 7 0 0 -16 5 0 0 36 -5 0 0 -15 -7 0 0 15 -5 0 0 -36 5 0zm33 0l0 5 -10 0 0 11 6 0 0 5 -6 0 0 10 10 0 0 5 -15 0 0 -36 15 0zm20 0l0 24 -11 0 0 12 -5 0 0 -36 16 0zm-11 19l6 0 0 -14 -6 0 0 14zm30 -19l2 36 -5 0 -1 -10 -6 0 0 10 -5 0 2 -36 13 0zm-4 21l-1 -16 -3 0 -1 16 5 0zm17 -3l7 8 0 10 -15 0 0 -8 5 0 0 3 5 0 0 -4 -7 -9 7 -9 0 -4 -5 0 0 3 -5 0 0 -8 15 0 0 11 -7 7zm28 -18l0 24 -11 0 0 12 -5 0 0 -36 16 0zm-11 19l6 0 0 -14 -6 0 0 14zm22 -19l0 19 6 0 0 -19 5 0 0 36 -16 0 0 -5 11 0 0 -7 -11 0 0 -24 5 0zm17 0l6 0 0 31 4 0 0 -31 5 0 0 31 4 0 0 -31 5 0 0 36 -24 0 0 -36zm44 0l3 36 -6 0 0 -10 -6 0 -1 10 -5 0 2 -36 13 0zm-4 21l0 -16 -4 0 -1 16 5 0zm38 -21l0 36 -17 0 0 -15 -5 0 0 15 -5 0 0 -36 5 0 0 16 5 0 0 -16 17 0zm-11 31l6 0 0 -26 -6 0 0 26zm17 -31l5 0 0 31 4 0 0 -31 6 0 0 31 4 0 0 -31 5 0 0 31 2 0 0 11 -5 0 0 -6 -21 0 0 -36zm46 0l0 5 -11 0 0 11 6 0 0 5 -6 0 0 10 11 0 0 5 -16 0 0 -36 16 0zm18 0l0 5 -9 0 0 31 -6 0 0 -36 15 0zm20 0l0 36 -17 0 0 -36 17 0zm-11 31l6 0 0 -26 -6 0 0 26zm37 5l-5 0 0 -36 5 0 0 16 3 0 6 -16 5 0 -7 18 8 18 -6 0 -6 -15 -3 0 0 15zm34 -36l0 36 -16 0 0 -36 16 0zm-11 31l6 0 0 -26 -6 0 0 26zm22 -31l0 16 6 0 0 -16 5 0 0 36 -5 0 0 -15 -6 0 0 15 -5 0 0 -36 5 0zm31 0l0 5 -5 0 0 31 -5 0 0 -31 -6 0 0 -5 16 0zm20 0l0 24 -11 0 0 12 -5 0 0 -36 16 0zm-11 19l6 0 0 -14 -6 0 0 14zm34 -19l0 36 -17 0 0 -36 17 0zm-12 31l6 0 0 -26 -6 0 0 26zm33 -31l0 36 -5 0 0 -31 -3 0 -4 31 -7 0 0 -5 3 0 3 -31 13 0zm23 36l-5 0 0 -12 -3 0 -4 12 -6 0 5 -12 -4 0 0 -24 17 0 0 36zm-11 -31l0 14 6 0 0 -14 -6 0z">
    </path>
  </g>
</svg>