<svg xmlns="http://www.w3.org/2000/svg" viewBox="0 0 114.37 30.25">
  <defs>
    <style>
      .cls-1 {
        font-size: 15px;
        fill: #1d455b;
        font-family: Arial-BoldMT, Arial;
        font-weight: 700;
      }

      .cls-2 {
        letter-spacing: -0.01em;
      }

      .cls-3 {
        letter-spacing: 0em;
      }

      .cls-4 {
        fill: #008dd2;
      }

      .cls-5 {
        fill: #fff;
      }
    </style>
  </defs>
  <g id="Слой_2" data-name="Слой 2">
    <g id="Слой_1-2" data-name="Слой 1"><text class="cls-1" transform="translate(0 20.75)">
        <tspan xml:space="preserve">РПН </tspan>
        <tspan class="cls-2" x="64.96" y="0">Сф</tspan>
        <tspan class="cls-3" x="88.52" y="0">ера</tspan>
      </text>
      <circle class="cls-4" cx="49.21" cy="15.12" r="15.12" />
      <path class="cls-5"
        d="M49.59,3a3.2,3.2,0,0,0-.73,1.36,5.12,5.12,0,0,0-.07,2.35c.09.42.26.93.14,1s-.29-.27-.8-.56a2.22,2.22,0,0,0-.8-.3A1.63,1.63,0,0,0,46.09,7a1.46,1.46,0,0,0-.56,1,3.88,3.88,0,0,0-.27,1.4,7.29,7.29,0,0,0,.5,2.18c.55,1.84.53,2.1.41,2.19-.31.21-1-.78-1.72-.56-.47.14-.7.79-.82,1.43a7.79,7.79,0,0,0-.12,2.19c.16,1.71.86,2.9.53,3.13s-.89-.69-1.58-.5-.93,1.27-1,1.57a5.39,5.39,0,0,0,0,1.73,9.88,9.88,0,0,0,.3,2.11A6,6,0,0,0,43,27.1a4.37,4.37,0,0,0,1.74,1.23,4,4,0,0,0,1.47.25,6.15,6.15,0,0,0,1.6-.25,6.46,6.46,0,0,0,2.56-1.46,4.36,4.36,0,0,0,1.7-2.57,1.14,1.14,0,0,0-.1-1c-.34-.41-1.23-.35-2.26.18A5.54,5.54,0,0,1,51,21.92c1-.8,1.44-.63,2.44-1.4A4.81,4.81,0,0,0,55.26,18a2.16,2.16,0,0,0-.08-1.79c-.58-.77-2-.44-2-.79s.61-.42,1.43-1a6.61,6.61,0,0,0,2.15-2.24,4,4,0,0,0,.54-2.66,1.69,1.69,0,0,0-.5-1.06,2.31,2.31,0,0,0-2.62.36L54.59,8l.74-1.35a3.69,3.69,0,0,0,.09-2.32,3.74,3.74,0,0,0-1-1.59A3.9,3.9,0,0,0,52.32,2,3.5,3.5,0,0,0,49.59,3Z" />
      <path class="cls-4"
        d="M51.48,5.24a12.9,12.9,0,0,0-.31,2.38c-.05.28,0,.09-.3,1.25-.35,1.58-.39,2-.69,2.1-.13,0-.41.08-1-.39l-.67-.6L48,9.37c-.79-.69-1-.76-1.11-.7s.25.82.28.87c.34.6.63.7,1.26,1.41a3.25,3.25,0,0,1,.79,1.19,2.9,2.9,0,0,1,0,1.17,7.45,7.45,0,0,1-.44,1.93,6.69,6.69,0,0,0-.65,1.36c-.19.55-.22.85-.45.93-.4.14-1-.53-1.06-.65a2.75,2.75,0,0,1-.54-1c-.06-.1-.55-.89-.79-.8s-.14.7-.08,1a3.25,3.25,0,0,0,1,1.73,2.43,2.43,0,0,1,.56,2.51c-.41.75-.77,1.34-1,1.73a8.27,8.27,0,0,0-.79,1.36,2.52,2.52,0,0,0-.25,1.75c0,.18.17.61.47.69s.77-.37,1-.72a2.06,2.06,0,0,0,.24-1.17c0-.67.25-1.72,1.7-3.36A6.69,6.69,0,0,1,48.6,20a6.91,6.91,0,0,1,1.93-1.19,13,13,0,0,0,1.44-.7c.28-.18.9-.58.84-.76s-.22-.18-1.38,0l-2.54,1.36L49.36,17a12.31,12.31,0,0,0,.85-2.75c.14-.76.13-1.14.47-1.53s.91-.51,2-.87a13.22,13.22,0,0,0,2-.9c.89-.61,1.05-.86,1-1s-.63-.06-.69,0a2.85,2.85,0,0,0-1.11.54,6.19,6.19,0,0,1-1.31.61c-.66.26-1.17.46-1.34.27s-.07-.16.1-.84c.1-.39.2-.71.28-1a6.1,6.1,0,0,0,.35-1.13,5.73,5.73,0,0,0,.1-1,7.12,7.12,0,0,1,.17-1.22c.17-.81.41-1.27.16-1.59A.43.43,0,0,0,52,4.44C51.86,4.45,51.68,4.58,51.48,5.24Z" />
    </g>
  </g>
</svg>