<svg xmlns="http://www.w3.org/2000/svg" xmlns:xlink="http://www.w3.org/1999/xlink" viewBox="0 0 73 137.25">
  <defs>
    <style>
      .cls-1 {
        fill: #008dd2;
      }

      .cls-2 {
        fill: url(#gradient_logo_rpn);
      }

      .cls-3 {
        fill: #a32393;
        stroke: #d5a3bb;
        stroke-miterlimit: 10;
        opacity: 0.2;
      }
    </style>
    <linearGradient id="gradient_logo_rpn" x1="36.21" y1="36.72" x2="37.08" y2="109.72" gradientUnits="userSpaceOnUse">
      <stop offset="0" stop-color="#c87cb8" />
      <stop offset="0.57" stop-color="#982491" />
    </linearGradient>
  </defs>
  <g id="Слой_2" data-name="Слой 2">
    <g id="Слой_1-2" data-name="Слой 1">
      <line class="cls-1" x1="12.92" y1="136.75" x2="7.67" y2="137.25" />
      <path class="cls-2"
        d="M4.5,0A69.55,69.55,0,0,0,.67,34.33a34.51,34.51,0,0,0,3.25,9.42c3.27,6.27,7,8.47,13.25,16.5,2.41,3.08,4.16,5.69,5.17,7.25a63.82,63.82,0,0,1,4.91,18.08,35,35,0,0,1,.09,10.17,31.69,31.69,0,0,1-5.09,12.83Q17.13,116.05,12,123.5l-4,1c.06,1.67.12,3.33.17,5l4.17-4.17a55.77,55.77,0,0,0,25.16-.16,54.6,54.6,0,0,0,15.59-6.42A55.8,55.8,0,0,0,73,97.42a30.8,30.8,0,0,0-13.25-2.59,58.37,58.37,0,0,0,12.92-24.5,40.12,40.12,0,0,0-7.42-.16A39.22,39.22,0,0,0,59.5,71a62,62,0,0,0,3.17-11.08,62.29,62.29,0,0,0,.92-15.67A33.06,33.06,0,0,0,51.75,49.5a69.21,69.21,0,0,0-.33-13.42,69.52,69.52,0,0,0-3.08-13.66,39.47,39.47,0,0,0-5.59,4.41,40.28,40.28,0,0,0-4.5,5.08,55.83,55.83,0,0,0-1.33-5.83A56.93,56.93,0,0,0,28.17,8.25c-1.12,1.38-2.27,2.9-3.42,4.58a68.61,68.61,0,0,0-3.83,6.34,75.11,75.11,0,0,0-5.58-8.09A75,75,0,0,0,4.5,0Z" />
      <path class="cls-3"
        d="M22,66.06a43.14,43.14,0,0,1-5.6-15.89,46.6,46.6,0,0,1,.42-15.5A58.2,58.2,0,0,1,21,20.43C28.38,33.31,28.64,42.19,27.37,48c-.61,2.82-1.76,5.76-2.34,11.34a54.75,54.75,0,0,0,.63,16,41.43,41.43,0,0,1-.63-16,47.46,47.46,0,0,1,3.09-11.05,50.7,50.7,0,0,1,10-15.41c3.39,10.67,2.27,17.51.54,21.83-.74,1.83-1.48,3-4,8.67A94,94,0,0,0,30,75.21a50.08,50.08,0,0,0-2,12.85,46.51,46.51,0,0,1,2-12.85A40.27,40.27,0,0,1,37.11,61.1,37.53,37.53,0,0,1,51.33,50.28,33.78,33.78,0,0,1,49,66.46a44.28,44.28,0,0,1-5.16,8.67c-1.23,1.76-2.32,3.18-3.31,4.41-3.77,4.64-4.86,5.48-6.26,7.16-.19.23-.75.92-1.44,1.86-.35.49-5.41,7.54-6,11.77a10.2,10.2,0,0,1-.35,1.61,9.71,9.71,0,0,1-1.27,2.7c-.07,0,6.37-19.93,21.62-28.72a35.35,35.35,0,0,1,12-4.22,40.53,40.53,0,0,1-2.32,6.88,36.4,36.4,0,0,1-4.93,8.25c-2.78,3.44-6.15,5.64-12.79,9.89-5.71,3.66-6.45,3.6-9.64,6.16a50.69,50.69,0,0,0-7.38,7.25,35.85,35.85,0,0,1,7.1-7,40.63,40.63,0,0,1,11.51-5.92A43.85,43.85,0,0,1,59,95.25a34.79,34.79,0,0,1-9,10.17c-4.92,3.68-9.54,5-15.25,6.66A77.92,77.92,0,0,1,18.43,115c.69-1,1.67-2.41,2.83-4.15,1.9-2.83,2.85-4.25,3.32-5.1a28.82,28.82,0,0,0,3.16-9.65,33.26,33.26,0,0,0,.36-6.48,45.18,45.18,0,0,0-.46-4.81,72.55,72.55,0,0,0-1.5-7.71c-.45-1.79-1-3.41-2-6.66a15.81,15.81,0,0,0-1.05-2.52A15.14,15.14,0,0,0,22,66.06Z" />
    </g>
  </g>
</svg>